<svg xmlns="http://www.w3.org/2000/svg" width="640" height="480" viewBox="0 0 640 480" role="img"><title>Let’s talk. Open to ML roles and research collaboration. Email duminduku.25@gmail.com.</title><style>.d1,.d2,.d3,.halo,.ring,.star{transform-box:fill-box;transform-origin:center}
.d1{animation:d1 27s ease-in-out infinite alternate}
.d2{animation:d2 31s ease-in-out infinite alternate}
.d3{animation:d3 24s ease-in-out infinite alternate}
@keyframes d1{to{transform:translate(90px,36px) scale(1.18)}}
@keyframes d2{to{transform:translate(-120px,28px) scale(.9)}}
@keyframes d3{to{transform:translate(70px,-48px) scale(1.14)}}
.halo{animation:halo 2s ease-out infinite}
@keyframes halo{from{transform:scale(1);opacity:.6}to{transform:scale(2.8);opacity:0}}
.bob{animation:bob 3.2s ease-in-out infinite}
@keyframes bob{50%{transform:translateY(-7px)}}
.spin{animation:spin 6s linear infinite}
@keyframes spin{to{transform:rotate(360deg)}}
.bounce{animation:bounce 1.3s ease-in-out infinite}
@keyframes bounce{50%{transform:translateY(-13px)}}
.ring{animation:ring 2.4s ease-out infinite}
@keyframes ring{from{transform:scale(.2);opacity:.9}to{transform:scale(1);opacity:0}}
.blink{animation:blink 1.8s ease-in-out infinite}
@keyframes blink{0%,100%{opacity:.16}50%{opacity:1}}
.bar{animation:bar 1.6s ease-in-out infinite;transform-box:fill-box;transform-origin:50% 100%}
@keyframes bar{0%,100%{transform:scaleY(.3)}50%{transform:scaleY(1)}}
.scan{animation:scan 2.6s ease-in-out infinite alternate}
@keyframes scan{from{transform:translateY(-24px)}to{transform:translateY(24px)}}
.hue{animation:hue 6s linear infinite}
@keyframes hue{0%,100%{fill:#8fe3c2}25%{fill:#6fd3e0}50%{fill:#7fb6ff}75%{fill:#ffb38a}}
.star{animation:star 2.8s ease-in-out infinite}
@keyframes star{0%,100%{transform:scale(.8);opacity:.7}50%{transform:scale(1.06);opacity:1}}
.flicker{animation:flicker 3.4s linear infinite}
@keyframes flicker{0%,40%,48%,56%,100%{opacity:1}44%{opacity:.3}52%{opacity:.55}}
.typing{animation:typing 1.2s ease-in-out infinite}
@keyframes typing{0%,60%,100%{opacity:.25;transform:none}
30%{opacity:1;transform:translateY(-3px)}}
@media (prefers-reduced-motion:reduce){*{animation:none!important}}</style><defs><clipPath id="clip1"><rect width="640" height="480" rx="40"/></clipPath><radialGradient id="rg2"><stop offset="0" stop-color="#27c485" stop-opacity="0.3"/><stop offset=".45" stop-color="#27c485" stop-opacity="0.135"/><stop offset="1" stop-color="#27c485" stop-opacity="0"/></radialGradient><radialGradient id="rg3"><stop offset="0" stop-color="#2f6bff" stop-opacity="0.3"/><stop offset=".45" stop-color="#2f6bff" stop-opacity="0.135"/><stop offset="1" stop-color="#2f6bff" stop-opacity="0"/></radialGradient><linearGradient id="lg4" x1="0" y1="0" x2="0" y2="1"><stop offset="0.5" stop-color="#06060a" stop-opacity="0"/><stop offset="1" stop-color="#06060a" stop-opacity="0.75"/></linearGradient><linearGradient id="lg5" x1="0.3" y1="0.1" x2="0.7" y2="0.9"><stop offset="0" stop-color="#fff" stop-opacity="0.08"/><stop offset="1" stop-color="#fff" stop-opacity="0.02"/></linearGradient><linearGradient id="lg6" x1="0" y1="0" x2="0" y2="1"><stop offset="0" stop-color="#fff" stop-opacity="0.08"/><stop offset="0.4" stop-color="#fff" stop-opacity="0"/></linearGradient><linearGradient id="lg7" x1="18" y1="0" x2="622" y2="0" gradientUnits="userSpaceOnUse"><stop offset="0" stop-color="#fff" stop-opacity="0"/><stop offset="0.5" stop-color="#fff" stop-opacity="0.24"/><stop offset="1" stop-color="#fff" stop-opacity="0"/></linearGradient><path id="g8" d="M5.1 0.2Q3 0.2 2 -1.3Q0.9 -2.8 0.9 -5.6Q0.9 -8.4 2 -9.9Q3 -11.4 5.1 -11.4Q5.9 -11.4 6.5 -11.1Q7.1 -10.9 7.6 -10.6Q8 -10.2 8.3 -9.7Q8.6 -9.2 8.8 -8.6L7.2 -8Q7 -8.4 6.9 -8.8Q6.7 -9.1 6.5 -9.3Q6.2 -9.6 5.9 -9.7Q5.6 -9.9 5.1 -9.9Q3.9 -9.9 3.4 -9Q2.8 -8.1 2.8 -6.5V-4.6Q2.8 -3.1 3.4 -2.2Q3.9 -1.3 5.1 -1.3Q5.6 -1.3 5.9 -1.4Q6.2 -1.6 6.5 -1.8Q6.7 -2.1 6.9 -2.4Q7 -2.7 7.2 -3.1L8.8 -2.6Q8.6 -2 8.3 -1.5Q8 -1 7.6 -0.6Q7.1 -0.2 6.5 -0Q5.9 0.2 5.1 0.2Z"/><path id="g9" d="M4.8 0.2Q3.7 0.2 3 -0.2Q2.2 -0.6 1.7 -1.3Q1.2 -2.1 0.9 -3.1Q0.7 -4.2 0.7 -5.6Q0.7 -6.9 0.9 -8Q1.2 -9.1 1.7 -9.8Q2.2 -10.6 3 -11Q3.7 -11.4 4.8 -11.4Q5.9 -11.4 6.6 -11Q7.4 -10.6 7.9 -9.8Q8.4 -9.1 8.7 -8Q8.9 -6.9 8.9 -5.6Q8.9 -4.2 8.7 -3.1Q8.4 -2.1 7.9 -1.3Q7.4 -0.6 6.6 -0.2Q5.9 0.2 4.8 0.2ZM4.8 -1.3Q6 -1.3 6.5 -2.2Q7 -3.1 7 -4.7V-6.5Q7 -8.1 6.5 -9Q6 -9.9 4.8 -9.9Q3.6 -9.9 3.1 -9Q2.6 -8.1 2.6 -6.5V-4.6Q2.6 -3.1 3.1 -2.2Q3.6 -1.3 4.8 -1.3Z"/><path id="g10" d="M2.9 -8.6H2.7V0H1.2V-11.2H3.5L6.7 -2.6H6.9V-11.2H8.4V0H6.1L2.9 -8.6Z"/><path id="g11" d="M5.7 -9.7V0H3.9V-9.7H0.4V-11.2H9.2V-9.7H5.7Z"/><path id="g12" d="M7.4 0 6.5 -3H3L2.1 0H0.3L3.6 -11.2H6L9.3 0H7.4ZM4.8 -9.4H4.7L3.3 -4.5H6.2L4.8 -9.4Z"/><linearGradient id="lg13" x1="199.3" y1="0" x2="440.7" y2="0" gradientUnits="userSpaceOnUse"><stop offset="0.0" stop-color="#8fe3c2" stop-opacity="1"/><stop offset="0.5" stop-color="#6fd3e0" stop-opacity="1"/><stop offset="1.0" stop-color="#7fb6ff" stop-opacity="1"/></linearGradient><path id="g14" d="M8.8 0.2Q6.7 0.2 5 -0.8Q3.3 -1.9 2.3 -3.8Q1.4 -5.7 1.4 -8.4Q1.4 -11 2.3 -12.9Q3.3 -14.9 5 -15.9Q6.7 -17 8.8 -17Q10.9 -17 12.6 -15.9Q14.3 -14.9 15.3 -12.9Q16.2 -11 16.2 -8.4Q16.2 -5.7 15.3 -3.8Q14.3 -1.9 12.6 -0.8Q10.9 0.2 8.8 0.2ZM8.8 -1.8Q10.3 -1.8 11.5 -2.5Q12.7 -3.3 13.4 -4.7Q14.1 -6.2 14.1 -8.4Q14.1 -10.5 13.4 -12Q12.7 -13.5 11.5 -14.2Q10.3 -15 8.8 -15Q7.3 -15 6.1 -14.2Q4.9 -13.5 4.2 -12Q3.4 -10.5 3.4 -8.4Q3.4 -6.2 4.2 -4.8Q4.9 -3.3 6.1 -2.5Q7.3 -1.8 8.8 -1.8Z"/><path id="g15" d="M1.8 4.7V-12.6H3.7V-10.5H4Q4.2 -10.9 4.5 -11.4Q4.9 -11.9 5.6 -12.3Q6.4 -12.7 7.6 -12.7Q9.2 -12.7 10.4 -11.9Q11.6 -11.1 12.2 -9.7Q12.9 -8.2 12.9 -6.2Q12.9 -4.2 12.2 -2.8Q11.6 -1.3 10.4 -0.5Q9.2 0.3 7.6 0.3Q6.4 0.3 5.7 -0.1Q5 -0.6 4.6 -1.1Q4.2 -1.6 4 -1.9H3.8V4.7H1.8ZM7.3 -1.5Q8.5 -1.5 9.3 -2.2Q10.1 -2.8 10.5 -3.9Q10.9 -5 10.9 -6.3Q10.9 -7.6 10.5 -8.6Q10.1 -9.7 9.3 -10.3Q8.5 -10.9 7.3 -10.9Q6.1 -10.9 5.4 -10.3Q4.6 -9.7 4.2 -8.7Q3.8 -7.7 3.8 -6.3Q3.8 -4.9 4.2 -3.8Q4.6 -2.7 5.4 -2.1Q6.2 -1.5 7.3 -1.5Z"/><path id="g16" d="M7.1 0.3Q5.2 0.3 3.9 -0.5Q2.6 -1.3 1.9 -2.8Q1.2 -4.2 1.2 -6.2Q1.2 -8.1 1.9 -9.6Q2.6 -11.1 3.8 -11.9Q5.1 -12.7 6.8 -12.7Q7.8 -12.7 8.8 -12.4Q9.8 -12.1 10.6 -11.3Q11.3 -10.6 11.8 -9.4Q12.3 -8.2 12.3 -6.4V-5.6H2.5V-7.3H11.2L10.3 -6.7Q10.3 -7.9 9.9 -8.9Q9.5 -9.8 8.7 -10.4Q8 -10.9 6.8 -10.9Q5.7 -10.9 4.9 -10.4Q4.1 -9.8 3.6 -8.9Q3.2 -8 3.2 -7V-5.9Q3.2 -4.5 3.7 -3.5Q4.2 -2.5 5 -2Q5.9 -1.5 7.1 -1.5Q7.8 -1.5 8.4 -1.7Q9 -2 9.5 -2.4Q9.9 -2.8 10.1 -3.5L12.1 -2.9Q11.8 -2 11.1 -1.3Q10.4 -0.5 9.4 -0.1Q8.3 0.3 7.1 0.3Z"/><path id="g17" d="M3.8 -7.5V0H1.8V-12.6H3.7L3.7 -9.5H3.4Q4 -11.3 5.1 -12Q6.1 -12.7 7.6 -12.7Q8.8 -12.7 9.8 -12.2Q10.7 -11.7 11.3 -10.6Q11.8 -9.6 11.8 -8V0H9.8V-7.8Q9.8 -9.3 9 -10.1Q8.3 -10.9 7 -10.9Q6.1 -10.9 5.3 -10.5Q4.6 -10.1 4.2 -9.4Q3.8 -8.6 3.8 -7.5Z"/><path id="g18" d="M6.7 -12.6V-10.8H0.2V-12.6H6.7ZM2.1 -15.5H4.1V-3.3Q4.1 -2.4 4.5 -2Q4.8 -1.6 5.6 -1.6Q5.8 -1.6 6.1 -1.7Q6.4 -1.7 6.6 -1.8L7.1 -0.1Q6.7 0 6.4 0.1Q6 0.2 5.6 0.2Q3.9 0.2 3 -0.7Q2.1 -1.6 2.1 -3.1V-15.5Z"/><path id="g19" d="M6.9 0.3Q5.2 0.3 3.9 -0.5Q2.6 -1.3 1.9 -2.8Q1.2 -4.3 1.2 -6.2Q1.2 -8.2 1.9 -9.6Q2.6 -11.1 3.9 -11.9Q5.2 -12.7 6.9 -12.7Q8.6 -12.7 9.9 -11.9Q11.2 -11.1 11.9 -9.6Q12.6 -8.2 12.6 -6.2Q12.6 -4.3 11.9 -2.8Q11.2 -1.3 9.9 -0.5Q8.6 0.3 6.9 0.3ZM6.9 -1.5Q8.2 -1.5 9 -2.2Q9.8 -2.8 10.2 -3.9Q10.6 -5 10.6 -6.2Q10.6 -7.4 10.2 -8.5Q9.8 -9.6 9 -10.2Q8.2 -10.9 6.9 -10.9Q5.6 -10.9 4.8 -10.2Q4 -9.6 3.6 -8.5Q3.2 -7.5 3.2 -6.2Q3.2 -5 3.6 -3.9Q4 -2.8 4.8 -2.2Q5.6 -1.5 6.9 -1.5Z"/><path id="g20" d="M2 0V-16.7H5.1L9.2 -6.2Q9.3 -5.8 9.5 -5.3Q9.7 -4.7 9.9 -4Q10.1 -3.4 10.3 -2.7Q10.5 -2.1 10.6 -1.5H10.2Q10.3 -2.1 10.5 -2.7Q10.7 -3.3 10.9 -4Q11.1 -4.6 11.3 -5.2Q11.5 -5.8 11.6 -6.2L15.7 -16.7H18.8V0H16.7V-9.6Q16.7 -10.1 16.7 -10.7Q16.7 -11.4 16.7 -12.1Q16.7 -12.9 16.7 -13.6Q16.7 -14.4 16.7 -15.1H16.9Q16.7 -14.3 16.4 -13.5Q16.2 -12.7 15.9 -11.9Q15.7 -11.2 15.4 -10.6Q15.2 -10 15 -9.6L11.3 0H9.5L5.7 -9.6Q5.5 -10 5.3 -10.6Q5.1 -11.2 4.8 -11.9Q4.6 -12.6 4.3 -13.4Q4 -14.3 3.8 -15.1H4Q4 -14.4 4 -13.7Q4 -13 4 -12.2Q4 -11.5 4 -10.8Q4.1 -10.1 4.1 -9.6V0H2Z"/><path id="g21" d="M2 0V-16.7H4.2V-1.9H11.9V0H2Z"/><path id="g22" d="M1.8 0V-12.6H3.7V-10.6H3.9Q4.2 -11.6 5.1 -12.2Q6 -12.7 7.1 -12.7Q7.3 -12.7 7.7 -12.7Q8 -12.7 8.1 -12.7V-10.7Q8.1 -10.7 7.7 -10.7Q7.3 -10.8 6.9 -10.8Q6 -10.8 5.3 -10.4Q4.6 -10 4.2 -9.4Q3.8 -8.7 3.8 -7.9V0H1.8Z"/><path id="g23" d="M3.8 -16.7V0H1.8V-16.7H3.8Z"/><path id="g24" d="M6 0.3Q4.8 0.3 3.7 -0.1Q2.7 -0.5 2.1 -1.2Q1.4 -2 1.2 -3L3.1 -3.5Q3.4 -2.5 4.1 -2Q4.9 -1.5 6 -1.5Q7.3 -1.5 8.1 -2.1Q8.9 -2.6 8.9 -3.4Q8.9 -4.1 8.4 -4.5Q8 -4.9 7.1 -5.1L5 -5.6Q3.3 -6 2.4 -6.9Q1.6 -7.7 1.6 -9.1Q1.6 -10.1 2.2 -11Q2.8 -11.8 3.9 -12.2Q4.9 -12.7 6.2 -12.7Q7.5 -12.7 8.4 -12.3Q9.3 -11.9 9.9 -11.3Q10.5 -10.6 10.8 -9.7L8.9 -9.2Q8.7 -9.9 8.1 -10.4Q7.5 -11 6.3 -11Q5.1 -11 4.4 -10.5Q3.6 -10 3.6 -9.2Q3.6 -8.5 4.1 -8.1Q4.6 -7.6 5.8 -7.4L7.6 -6.9Q9.4 -6.5 10.2 -5.7Q11 -4.8 11 -3.5Q11 -2.4 10.4 -1.6Q9.7 -0.7 8.6 -0.2Q7.5 0.3 6 0.3Z"/><path id="g25" d="M5.3 0.3Q4.1 0.3 3.1 -0.2Q2.2 -0.6 1.6 -1.5Q1 -2.3 1 -3.6Q1 -4.6 1.4 -5.3Q1.9 -6 2.6 -6.4Q3.3 -6.8 4.2 -7Q5 -7.2 5.9 -7.3Q7 -7.4 7.7 -7.5Q8.4 -7.6 8.8 -7.8Q9.1 -8 9.1 -8.4V-8.5Q9.1 -9.3 8.8 -9.8Q8.5 -10.4 8 -10.6Q7.4 -10.9 6.5 -10.9Q5.6 -10.9 5 -10.7Q4.3 -10.4 3.9 -10Q3.5 -9.5 3.3 -9.1L1.4 -9.7Q1.9 -10.9 2.7 -11.5Q3.5 -12.2 4.5 -12.4Q5.5 -12.7 6.4 -12.7Q7.1 -12.7 7.9 -12.6Q8.7 -12.4 9.4 -12Q10.2 -11.5 10.7 -10.6Q11.1 -9.7 11.1 -8.3V0H9.2V-1.7H9Q8.8 -1.3 8.3 -0.8Q7.9 -0.3 7.1 -0Q6.4 0.3 5.3 0.3ZM5.6 -1.5Q6.8 -1.5 7.5 -1.9Q8.3 -2.4 8.7 -3.1Q9.1 -3.8 9.1 -4.5V-6.3Q9 -6.1 8.6 -6Q8.2 -5.9 7.6 -5.8Q7.1 -5.7 6.6 -5.7Q6.1 -5.6 5.8 -5.6Q5.1 -5.5 4.4 -5.3Q3.8 -5 3.4 -4.6Q3 -4.2 3 -3.5Q3 -2.8 3.4 -2.4Q3.7 -1.9 4.3 -1.7Q4.9 -1.5 5.6 -1.5Z"/><path id="g26" d="M6.5 0.3Q4.9 0.3 3.7 -0.5Q2.5 -1.3 1.8 -2.8Q1.2 -4.2 1.2 -6.2Q1.2 -8.2 1.8 -9.7Q2.5 -11.1 3.7 -11.9Q4.9 -12.7 6.5 -12.7Q7.7 -12.7 8.4 -12.3Q9.2 -11.9 9.5 -11.4Q9.9 -10.9 10.1 -10.5H10.3V-16.7H12.3V0H10.4V-1.9H10.1Q9.9 -1.6 9.5 -1.1Q9.1 -0.6 8.4 -0.1Q7.7 0.3 6.5 0.3ZM6.8 -1.5Q7.9 -1.5 8.7 -2.1Q9.5 -2.7 9.9 -3.8Q10.3 -4.9 10.3 -6.3Q10.3 -7.7 9.9 -8.7Q9.5 -9.7 8.7 -10.3Q7.9 -10.9 6.8 -10.9Q5.6 -10.9 4.8 -10.3Q4 -9.7 3.6 -8.6Q3.2 -7.6 3.2 -6.3Q3.2 -5 3.6 -3.9Q4 -2.8 4.8 -2.2Q5.6 -1.5 6.8 -1.5Z"/><path id="g27" d="M6.9 0.3Q5.2 0.3 3.9 -0.5Q2.6 -1.3 1.9 -2.8Q1.2 -4.3 1.2 -6.2Q1.2 -8.2 1.9 -9.6Q2.6 -11.1 3.9 -11.9Q5.2 -12.7 6.9 -12.7Q7.8 -12.7 8.6 -12.5Q9.4 -12.2 10.1 -11.8Q10.7 -11.4 11.2 -10.7Q11.7 -10.1 12 -9.2L10 -8.7Q9.9 -9.2 9.6 -9.6Q9.3 -10 8.9 -10.3Q8.5 -10.6 8 -10.7Q7.5 -10.9 6.9 -10.9Q5.6 -10.9 4.8 -10.2Q4 -9.6 3.6 -8.5Q3.2 -7.5 3.2 -6.2Q3.2 -5 3.6 -3.9Q4 -2.8 4.8 -2.2Q5.6 -1.5 6.9 -1.5Q7.5 -1.5 8 -1.7Q8.6 -1.9 9 -2.2Q9.4 -2.5 9.7 -2.9Q10 -3.3 10.1 -3.9L12 -3.3Q11.8 -2.5 11.3 -1.8Q10.8 -1.1 10.1 -0.7Q9.4 -0.2 8.6 0Q7.8 0.3 6.9 0.3Z"/><path id="g28" d="M3.8 -7.5V0H1.8V-16.7H3.8V-9.5H3.4Q4 -11.3 5.1 -12Q6.1 -12.7 7.6 -12.7Q8.8 -12.7 9.8 -12.2Q10.8 -11.7 11.3 -10.6Q11.8 -9.6 11.8 -8V0H9.8V-7.8Q9.8 -9.3 9 -10.1Q8.3 -10.9 7 -10.9Q6.1 -10.9 5.3 -10.5Q4.6 -10.1 4.2 -9.4Q3.8 -8.6 3.8 -7.5Z"/><path id="g29" d="M7.6 0.3Q6.4 0.3 5.7 -0.1Q5 -0.6 4.6 -1.1Q4.2 -1.6 4 -1.9H3.7V0H1.8V-16.7H3.8V-10.5H4Q4.2 -10.9 4.5 -11.4Q4.9 -11.9 5.6 -12.3Q6.4 -12.7 7.6 -12.7Q9.2 -12.7 10.4 -11.9Q11.6 -11.1 12.2 -9.7Q12.9 -8.2 12.9 -6.2Q12.9 -4.2 12.2 -2.8Q11.6 -1.3 10.4 -0.5Q9.2 0.3 7.6 0.3ZM7.3 -1.5Q8.5 -1.5 9.3 -2.2Q10.1 -2.8 10.5 -3.9Q10.9 -5 10.9 -6.3Q10.9 -7.6 10.5 -8.6Q10.1 -9.7 9.3 -10.3Q8.5 -10.9 7.3 -10.9Q6.1 -10.9 5.4 -10.3Q4.6 -9.7 4.2 -8.7Q3.8 -7.7 3.8 -6.3Q3.8 -4.9 4.2 -3.8Q4.6 -2.7 5.4 -2.1Q6.2 -1.5 7.3 -1.5Z"/><path id="g30" d="M1.8 0V-12.6H3.8V0H1.8ZM2.8 -14.6Q2.2 -14.6 1.8 -15Q1.4 -15.4 1.4 -15.9Q1.4 -16.5 1.8 -16.9Q2.2 -17.3 2.8 -17.3Q3.4 -17.3 3.8 -16.9Q4.2 -16.5 4.2 -15.9Q4.2 -15.4 3.8 -15Q3.4 -14.6 2.8 -14.6Z"/><path id="g31" d="M3.3 0.1Q2.7 0.1 2.2 -0.3Q1.8 -0.7 1.8 -1.4Q1.8 -2 2.2 -2.4Q2.7 -2.9 3.3 -2.9Q3.9 -2.9 4.4 -2.4Q4.8 -2 4.8 -1.4Q4.8 -0.7 4.4 -0.3Q3.9 0.1 3.3 0.1Z"/><path id="g32" d="M5.6 0.2Q4.3 0.2 3.2 -0.5Q2.1 -1.2 1.5 -2.5Q0.9 -3.8 0.9 -5.7Q0.9 -7.6 1.5 -8.9Q2.2 -10.3 3.2 -10.9Q4.3 -11.6 5.6 -11.6Q6.7 -11.6 7.3 -11.3Q8 -10.9 8.3 -10.4Q8.7 -10 8.9 -9.6H9V-15.3H11.7V0H9.1V-1.8H8.9Q8.7 -1.4 8.3 -0.9Q7.9 -0.5 7.3 -0.1Q6.6 0.2 5.6 0.2ZM6.4 -2Q7.2 -2 7.8 -2.5Q8.4 -2.9 8.8 -3.8Q9.1 -4.6 9.1 -5.7Q9.1 -6.8 8.8 -7.7Q8.5 -8.5 7.8 -9Q7.2 -9.4 6.4 -9.4Q5.5 -9.4 4.9 -8.9Q4.3 -8.5 3.9 -7.6Q3.6 -6.8 3.6 -5.7Q3.6 -4.7 3.9 -3.8Q4.3 -3 4.9 -2.5Q5.5 -2 6.4 -2Z"/><path id="g33" d="M5.3 0.1Q4.2 0.1 3.3 -0.4Q2.4 -0.9 1.9 -1.8Q1.4 -2.8 1.4 -4.2V-11.5H4.1V-4.6Q4.1 -3.4 4.7 -2.8Q5.3 -2.1 6.3 -2.1Q7 -2.1 7.6 -2.4Q8.1 -2.7 8.5 -3.3Q8.8 -3.9 8.8 -4.7V-11.5H11.4V0H8.9L8.9 -2.8H9.1Q8.6 -1.3 7.7 -0.6Q6.7 0.1 5.3 0.1Z"/><path id="g34" d="M1.4 0V-11.5H3.9L4 -8.7H3.8Q4.1 -9.7 4.6 -10.4Q5.1 -11 5.8 -11.3Q6.5 -11.6 7.3 -11.6Q8.5 -11.6 9.3 -10.9Q10 -10.1 10.3 -8.6H10Q10.3 -9.6 10.8 -10.3Q11.4 -11 12.2 -11.3Q13 -11.6 13.9 -11.6Q14.9 -11.6 15.7 -11.2Q16.5 -10.7 17 -9.9Q17.5 -9 17.5 -7.7V0H14.8V-7.3Q14.8 -8.4 14.2 -8.9Q13.7 -9.4 12.8 -9.4Q12.2 -9.4 11.7 -9.1Q11.3 -8.8 11 -8.3Q10.8 -7.8 10.8 -7.2V0H8.2V-7.4Q8.2 -8.3 7.6 -8.8Q7.1 -9.4 6.2 -9.4Q5.6 -9.4 5.1 -9.1Q4.7 -8.8 4.4 -8.3Q4.1 -7.8 4.1 -7V0H1.4Z"/><path id="g35" d="M1.4 0V-11.5H4.1V0H1.4ZM2.7 -13.1Q2.1 -13.1 1.7 -13.5Q1.2 -13.9 1.2 -14.5Q1.2 -15.2 1.7 -15.6Q2.1 -16 2.7 -16Q3.4 -16 3.8 -15.6Q4.3 -15.2 4.3 -14.5Q4.3 -13.9 3.8 -13.5Q3.4 -13.1 2.7 -13.1Z"/><path id="g36" d="M4.1 -6.7V0H1.4V-11.5H3.9L4 -8.6H3.8Q4.2 -10.1 5.2 -10.9Q6.1 -11.6 7.5 -11.6Q8.7 -11.6 9.6 -11.1Q10.5 -10.6 10.9 -9.6Q11.4 -8.7 11.4 -7.3V0H8.8V-6.9Q8.8 -8 8.2 -8.7Q7.6 -9.3 6.5 -9.3Q5.8 -9.3 5.3 -9Q4.7 -8.7 4.4 -8.1Q4.1 -7.6 4.1 -6.7Z"/><path id="g37" d="M3.9 -3.6V-6.8H4.3L8.4 -11.5H11.5L6.5 -5.8H5.9L3.9 -3.6ZM1.4 0V-15.3H4.1V0H1.4ZM8.6 0 4.8 -5.2 6.7 -7.1 11.8 0H8.6Z"/><path id="g38" d="M3.3 0.2Q2.7 0.2 2.2 -0.3Q1.7 -0.8 1.7 -1.5Q1.7 -2.2 2.2 -2.6Q2.7 -3.1 3.3 -3.1Q4 -3.1 4.5 -2.6Q5 -2.2 5 -1.5Q5 -0.8 4.5 -0.3Q4 0.2 3.3 0.2Z"/><path id="g39" d="M1.4 0V-2L6.7 -7.2Q7.4 -8 7.9 -8.5Q8.4 -9.1 8.7 -9.7Q9 -10.3 9 -10.9Q9 -11.6 8.6 -12.2Q8.3 -12.7 7.7 -13Q7.2 -13.2 6.4 -13.2Q5.7 -13.2 5.1 -12.9Q4.5 -12.6 4.2 -12.1Q3.9 -11.5 3.9 -10.7H1.3Q1.3 -12.2 2 -13.2Q2.6 -14.3 3.8 -14.9Q4.9 -15.5 6.5 -15.5Q8 -15.5 9.1 -14.9Q10.3 -14.3 11 -13.3Q11.6 -12.3 11.6 -11.1Q11.6 -10.2 11.3 -9.4Q11 -8.6 10.1 -7.6Q9.3 -6.5 7.8 -5.1L5.2 -2.4V-2.3H11.8V0H1.4Z"/><path id="g40" d="M6.3 0.2Q4.8 0.2 3.7 -0.4Q2.5 -0.9 1.8 -1.9Q1.1 -2.9 1.1 -4.1H3.7Q3.8 -3.5 4.1 -3Q4.5 -2.6 5.1 -2.3Q5.6 -2 6.3 -2Q7.2 -2 7.8 -2.4Q8.4 -2.8 8.8 -3.4Q9.1 -4.1 9.1 -4.9Q9.1 -5.8 8.8 -6.5Q8.4 -7.2 7.7 -7.6Q7.1 -7.9 6.3 -7.9Q5.6 -7.9 4.9 -7.7Q4.2 -7.4 3.8 -7L1.4 -7.4L2.2 -15.3H11V-13H4.4L4 -8.9H4.1Q4.5 -9.4 5.3 -9.7Q6.1 -10.1 7 -10.1Q8 -10.1 8.9 -9.7Q9.8 -9.3 10.4 -8.6Q11.1 -8 11.4 -7Q11.8 -6.1 11.8 -5Q11.8 -3.5 11.1 -2.3Q10.4 -1.1 9.2 -0.5Q7.9 0.2 6.3 0.2Z"/><path id="g41" d="M10.8 4.3Q8.5 4.3 6.7 3.6Q4.9 3 3.6 1.8Q2.4 0.5 1.7 -1.2Q1.1 -3 1.1 -5.3Q1.1 -7.5 1.7 -9.3Q2.3 -11.1 3.6 -12.4Q4.8 -13.7 6.6 -14.3Q8.4 -15 10.7 -15Q12.9 -15 14.6 -14.4Q16.3 -13.7 17.5 -12.5Q18.7 -11.3 19.3 -9.8Q19.9 -8.2 19.9 -6.4Q19.9 -5.2 19.7 -4.1Q19.5 -3 19.1 -2.1Q18.6 -1.3 17.9 -0.8Q17.1 -0.3 15.9 -0.3Q15.3 -0.3 14.7 -0.5Q14.1 -0.6 13.7 -1Q13.2 -1.4 13.1 -2H13.1Q12.8 -1.3 12 -0.8Q11.3 -0.3 10.1 -0.3Q8.7 -0.3 7.7 -1Q6.7 -1.6 6.2 -2.8Q5.7 -3.9 5.7 -5.4Q5.7 -6.9 6.3 -8Q6.9 -9.2 7.9 -9.8Q8.8 -10.4 10.1 -10.4Q11.1 -10.4 11.8 -10.1Q12.5 -9.7 12.8 -9.2H12.9V-10.2H14.9V-3.3Q14.9 -2.8 15.2 -2.5Q15.4 -2.1 15.9 -2.1Q16.6 -2.1 17 -2.6Q17.4 -3 17.6 -3.9Q17.7 -4.9 17.7 -6.3Q17.7 -7.7 17.3 -8.9Q16.9 -10.2 16 -11.1Q15.1 -12 13.8 -12.5Q12.5 -13 10.8 -13Q9 -13 7.6 -12.5Q6.2 -11.9 5.3 -11Q4.3 -10 3.8 -8.6Q3.4 -7.1 3.4 -5.3Q3.4 -3.5 3.8 -2.1Q4.3 -0.7 5.3 0.3Q6.3 1.2 7.7 1.7Q9.1 2.2 11 2.2Q11.8 2.2 12.6 2.1Q13.4 1.9 14 1.8Q14.7 1.6 15 1.4L15.7 3.3Q15.2 3.5 14.4 3.8Q13.7 4 12.7 4.1Q11.8 4.3 10.8 4.3ZM10.3 -2.3Q11.2 -2.3 11.7 -2.6Q12.3 -3 12.6 -3.7Q12.9 -4.4 12.9 -5.5Q12.9 -6.5 12.6 -7.2Q12.3 -7.8 11.7 -8.1Q11.1 -8.4 10.3 -8.4Q9.5 -8.4 9 -8Q8.4 -7.6 8.1 -7Q7.8 -6.3 7.8 -5.5Q7.8 -4.6 8.1 -3.9Q8.3 -3.1 8.9 -2.7Q9.4 -2.3 10.3 -2.3Z"/><path id="g42" d="M6.4 4.5Q5 4.5 4 4.2Q2.9 3.8 2.3 3.2Q1.6 2.6 1.4 1.9L3.6 1.1Q3.8 1.4 4.1 1.7Q4.4 2.1 5 2.3Q5.5 2.5 6.4 2.5Q7.6 2.5 8.3 1.9Q9.1 1.3 9.1 0.1V-2.1H8.9Q8.7 -1.6 8.3 -1.2Q7.9 -0.8 7.3 -0.5Q6.6 -0.2 5.6 -0.2Q4.3 -0.2 3.2 -0.8Q2.2 -1.4 1.5 -2.7Q0.9 -3.9 0.9 -5.8Q0.9 -7.6 1.5 -8.9Q2.2 -10.3 3.3 -10.9Q4.3 -11.6 5.7 -11.6Q6.7 -11.6 7.3 -11.3Q8 -10.9 8.4 -10.5Q8.8 -10 9 -9.6H9.1V-11.5H11.7V0Q11.7 1.6 11 2.6Q10.3 3.6 9.1 4Q7.9 4.5 6.4 4.5ZM6.4 -2.3Q7.3 -2.3 7.9 -2.7Q8.5 -3.1 8.8 -3.9Q9.1 -4.7 9.1 -5.8Q9.1 -6.9 8.8 -7.7Q8.5 -8.5 7.9 -9Q7.3 -9.4 6.4 -9.4Q5.5 -9.4 4.9 -8.9Q4.3 -8.5 3.9 -7.6Q3.6 -6.8 3.6 -5.8Q3.6 -4.7 4 -3.9Q4.3 -3.1 4.9 -2.7Q5.5 -2.3 6.4 -2.3Z"/><path id="g43" d="M4.6 0.2Q3.5 0.2 2.7 -0.2Q1.8 -0.6 1.3 -1.3Q0.8 -2.1 0.8 -3.2Q0.8 -4.2 1.1 -4.8Q1.5 -5.5 2.1 -5.8Q2.7 -6.2 3.5 -6.4Q4.3 -6.6 5.1 -6.7Q6.1 -6.8 6.8 -6.9Q7.4 -7 7.7 -7.2Q8 -7.3 8 -7.7V-7.8Q8 -8.3 7.8 -8.7Q7.5 -9.1 7.1 -9.3Q6.6 -9.6 6 -9.6Q5.3 -9.6 4.8 -9.3Q4.3 -9.1 4 -8.8Q3.7 -8.5 3.6 -8.1L1.1 -8.6Q1.4 -9.6 2.2 -10.3Q2.9 -11 3.8 -11.3Q4.8 -11.6 6 -11.6Q6.8 -11.6 7.6 -11.4Q8.4 -11.2 9.1 -10.8Q9.8 -10.3 10.2 -9.6Q10.6 -8.8 10.6 -7.7V0H8.1V-1.6H8Q7.7 -1.1 7.3 -0.7Q6.8 -0.3 6.2 -0Q5.5 0.2 4.6 0.2ZM5.3 -1.7Q6.1 -1.7 6.7 -2.1Q7.3 -2.4 7.7 -2.9Q8 -3.5 8 -4.1V-5.5Q7.9 -5.4 7.6 -5.3Q7.2 -5.2 6.9 -5.1Q6.5 -5 6.1 -5Q5.7 -4.9 5.5 -4.9Q4.9 -4.8 4.4 -4.6Q3.9 -4.4 3.6 -4.1Q3.4 -3.8 3.4 -3.3Q3.4 -2.8 3.6 -2.4Q3.9 -2.1 4.3 -1.9Q4.7 -1.7 5.3 -1.7Z"/><path id="g44" d="M4.1 -15.3V0H1.4V-15.3H4.1Z"/><path id="g45" d="M6.4 0.2Q4.7 0.2 3.5 -0.5Q2.3 -1.2 1.6 -2.6Q0.9 -3.9 0.9 -5.7Q0.9 -7.5 1.6 -8.8Q2.3 -10.1 3.5 -10.9Q4.7 -11.6 6.4 -11.6Q7.3 -11.6 8.2 -11.4Q9 -11.1 9.6 -10.6Q10.3 -10.2 10.7 -9.5Q11.1 -8.8 11.3 -8L8.8 -7.5Q8.7 -7.9 8.5 -8.3Q8.3 -8.7 8 -8.9Q7.7 -9.2 7.3 -9.3Q6.9 -9.4 6.4 -9.4Q5.5 -9.4 4.9 -8.9Q4.2 -8.5 3.9 -7.6Q3.6 -6.8 3.6 -5.7Q3.6 -4.6 3.9 -3.8Q4.2 -2.9 4.9 -2.4Q5.5 -1.9 6.4 -1.9Q6.9 -1.9 7.3 -2.1Q7.7 -2.2 8 -2.5Q8.3 -2.8 8.6 -3.1Q8.8 -3.5 8.9 -4L11.4 -3.5Q11.2 -2.6 10.7 -1.9Q10.3 -1.2 9.7 -0.8Q9 -0.3 8.2 -0Q7.4 0.2 6.4 0.2Z"/><path id="g46" d="M6.4 0.2Q4.7 0.2 3.5 -0.5Q2.3 -1.2 1.6 -2.6Q0.9 -3.9 0.9 -5.7Q0.9 -7.5 1.6 -8.8Q2.3 -10.1 3.5 -10.9Q4.7 -11.6 6.4 -11.6Q8.1 -11.6 9.3 -10.9Q10.5 -10.1 11.2 -8.8Q11.9 -7.5 11.9 -5.7Q11.9 -3.9 11.2 -2.6Q10.5 -1.2 9.3 -0.5Q8.1 0.2 6.4 0.2ZM6.4 -1.9Q7.3 -1.9 7.9 -2.4Q8.6 -2.9 8.9 -3.8Q9.2 -4.6 9.2 -5.7Q9.2 -6.7 8.9 -7.6Q8.6 -8.4 7.9 -8.9Q7.3 -9.4 6.4 -9.4Q5.5 -9.4 4.8 -8.9Q4.2 -8.4 3.9 -7.6Q3.6 -6.7 3.6 -5.7Q3.6 -4.6 3.9 -3.8Q4.2 -2.9 4.8 -2.4Q5.5 -1.9 6.4 -1.9Z"/></defs><g clip-path="url(#clip1)"><rect width="640" height="480" fill="#06060a"/><ellipse class="d1" cx="150" cy="110" rx="300" ry="200" fill="url(#rg2)"/><ellipse class="d2" cx="520" cy="400" rx="320" ry="220" fill="url(#rg3)"/><rect width="640" height="480" fill="url(#lg4)"/></g><rect x="18" y="18" width="604" height="444" rx="32" fill="url(#lg5)"/><rect x="18" y="18" width="604" height="444" rx="32" fill="url(#lg6)"/><path d="M50 18.8H590" stroke="url(#lg7)" stroke-width="1.2" fill="none"/><rect x="18.5" y="18.5" width="603" height="443" rx="31.5" fill="none" stroke="#fff" stroke-opacity=".11"/><g fill="#8a8a96"><use href="#g8" x="277.8" y="96"/><use href="#g9" x="290.2" y="96"/><use href="#g10" x="302.7" y="96"/><use href="#g11" x="315.2" y="96"/><use href="#g12" x="327.7" y="96"/><use href="#g8" x="340.2" y="96"/><use href="#g11" x="352.6" y="96"/></g><path fill="url(#lg13)" d="M202.5 176V132.3H211.5V168.3H231.4V176H202.5ZM247.7 176.7Q243.1 176.7 239.6 174.6Q236.1 172.6 234.2 168.9Q232.3 165.2 232.3 160.6Q232.3 155.8 234.2 152.2Q236.2 148.5 239.6 146.4Q243 144.4 247.5 144.4Q250.9 144.4 253.7 145.5Q256.4 146.7 258.5 148.8Q260.5 151 261.6 153.9Q262.7 156.8 262.7 160.4V162.7H235.3V157.2H258.5L254.6 158.5Q254.6 156.2 253.8 154.5Q252.9 152.8 251.4 151.9Q249.8 150.9 247.6 150.9Q245.5 150.9 243.9 151.9Q242.4 152.8 241.5 154.5Q240.7 156.2 240.7 158.5V162.3Q240.7 164.7 241.5 166.5Q242.4 168.3 244 169.2Q245.7 170.2 248 170.2Q249.7 170.2 251 169.7Q252.3 169.2 253.2 168.4Q254.1 167.5 254.5 166.3H262.4Q261.8 169.4 259.7 171.7Q257.7 174 254.6 175.4Q251.5 176.7 247.7 176.7ZM283 145.1V151.8H262.7V145.1H283ZM268 136.6H276.6V166.4Q276.6 168 277.3 168.6Q277.9 169.2 279.7 169.2Q280.4 169.2 281.4 169.2Q282.4 169.2 283 169.2V176Q282.2 176 280.8 176Q279.4 176 278 176Q272.8 176 270.4 174Q268 172 268 167.8V136.6ZM285.7 148.6 287.9 132.3H296.2L291.8 148.6H285.7ZM306.9 176.8Q302.9 176.8 299.8 175.5Q296.6 174.3 294.7 171.9Q292.9 169.6 292.6 166.3H301.1Q301.3 168.3 302.8 169.4Q304.2 170.6 306.7 170.6Q309.2 170.6 310.5 169.7Q311.9 168.7 311.9 167.3Q311.9 166.1 310.9 165.3Q309.8 164.6 307.9 164.2L302.5 163.2Q298 162.3 295.6 160Q293.3 157.7 293.3 154.2Q293.3 151.2 294.9 149Q296.5 146.8 299.4 145.6Q302.4 144.4 306.4 144.4Q310.4 144.4 313.4 145.7Q316.4 147 318.1 149.3Q319.8 151.6 319.9 154.9H311.9Q311.8 153 310.4 151.8Q308.9 150.6 306.7 150.6Q304.4 150.6 303.2 151.5Q301.9 152.4 301.9 153.8Q301.9 155 302.9 155.8Q303.9 156.6 305.6 156.9L311.5 158.1Q316.2 159 318.4 161.1Q320.6 163.1 320.6 166.5Q320.6 169.6 318.9 171.9Q317.1 174.2 314 175.5Q310.9 176.8 306.9 176.8ZM351.7 145.1V151.8H331.4V145.1H351.7ZM336.7 136.6H345.4V166.4Q345.4 168 346 168.6Q346.6 169.2 348.4 169.2Q349.1 169.2 350.1 169.2Q351.1 169.2 351.7 169.2V176Q350.9 176 349.5 176Q348.1 176 346.7 176Q341.5 176 339.1 174Q336.7 172 336.7 167.8V136.6ZM364 176.5Q360.9 176.5 358.5 175.5Q356.1 174.5 354.7 172.4Q353.3 170.4 353.3 167.3Q353.3 164.6 354.3 162.9Q355.2 161.2 356.9 160.1Q358.6 159 360.8 158.5Q363 157.9 365.4 157.7Q368.2 157.4 369.9 157.2Q371.6 156.9 372.3 156.4Q373 155.9 373 154.9V154.7Q373 153.6 372.4 152.7Q371.8 151.8 370.7 151.3Q369.6 150.8 368 150.8Q366.4 150.8 365.2 151.3Q363.9 151.8 363.2 152.7Q362.5 153.7 362.4 154.9H354.3Q354.5 151.7 356.2 149.3Q357.9 147 360.9 145.7Q364 144.4 368.2 144.4Q371.4 144.4 373.9 145.1Q376.4 145.9 378.1 147.2Q379.8 148.6 380.7 150.6Q381.6 152.5 381.6 155V176H373.1V171.6H373Q372.2 173.1 371 174.2Q369.8 175.3 368.1 175.9Q366.3 176.5 364 176.5ZM366.3 170.5Q368.4 170.5 369.9 169.8Q371.5 169 372.3 167.7Q373.1 166.4 373.1 164.7V161.6Q372.7 161.8 372.1 162Q371.5 162.2 370.7 162.3Q369.8 162.5 368.9 162.7Q367.9 162.8 366.9 163Q365.4 163.2 364.2 163.7Q363 164.2 362.3 165Q361.6 165.8 361.6 167Q361.6 168.1 362.2 168.9Q362.8 169.7 363.8 170.1Q364.9 170.5 366.3 170.5ZM394.2 132.3V176H385.6V132.3H394.2ZM406 167.1V156.9H406.9L417.8 145.1H427.9L413.9 160.6H411.9L406 167.1ZM398.2 176V132.3H406.8V176H398.2ZM418.4 176 408.7 162.5 414.4 156.5 428.5 176H418.4ZM433.4 176.5Q431.3 176.5 429.9 175.1Q428.4 173.6 428.4 171.6Q428.4 169.5 429.9 168Q431.3 166.6 433.4 166.6Q435.5 166.6 436.9 168Q438.4 169.5 438.4 171.6Q438.4 173.6 436.9 175.1Q435.5 176.5 433.4 176.5Z"/><g fill="#b6b6c0"><use href="#g14" x="203.4" y="232"/><use href="#g15" x="221" y="232"/><use href="#g16" x="235.1" y="232"/><use href="#g17" x="248.5" y="232"/><use href="#g18" x="268.5" y="232"/><use href="#g19" x="275.8" y="232"/><use href="#g20" x="296.1" y="232"/><use href="#g21" x="316.9" y="232"/><use href="#g22" x="336.4" y="232"/><use href="#g19" x="344.6" y="232"/><use href="#g23" x="358.4" y="232"/><use href="#g16" x="364" y="232"/><use href="#g24" x="377.4" y="232"/><use href="#g25" x="396" y="232"/><use href="#g17" x="408.9" y="232"/><use href="#g26" x="422.5" y="232"/></g><g fill="#b6b6c0"><use href="#g22" x="195.3" y="264"/><use href="#g16" x="203.6" y="264"/><use href="#g24" x="217" y="264"/><use href="#g16" x="229.1" y="264"/><use href="#g25" x="242.8" y="264"/><use href="#g22" x="255.7" y="264"/><use href="#g27" x="264" y="264"/><use href="#g28" x="277.1" y="264"/><use href="#g27" x="297.2" y="264"/><use href="#g19" x="310.3" y="264"/><use href="#g23" x="324.1" y="264"/><use href="#g23" x="329.7" y="264"/><use href="#g25" x="335.2" y="264"/><use href="#g29" x="348.1" y="264"/><use href="#g19" x="362.2" y="264"/><use href="#g22" x="376" y="264"/><use href="#g25" x="384.7" y="264"/><use href="#g18" x="397.6" y="264"/><use href="#g30" x="405.1" y="264"/><use href="#g19" x="410.7" y="264"/><use href="#g17" x="424.5" y="264"/><use href="#g31" x="438.1" y="264"/></g><rect x="140.3" y="338" width="359.3" height="60" rx="14" fill="#6fb39a"/><rect x="164.3359375" y="360" width="22" height="16" rx="3.5" fill="none" stroke="#06060a" stroke-width="1.8"/><path d="M166.3359375 363L175.3359375 369.5L184.3359375 363" fill="none" stroke="#06060a" stroke-width="1.8" stroke-linecap="round" stroke-linejoin="round"/><g fill="#06060a"><use href="#g32" x="200.3" y="375.5"/><use href="#g33" x="213.4" y="375.5"/><use href="#g34" x="226.3" y="375.5"/><use href="#g35" x="245.2" y="375.5"/><use href="#g36" x="250.7" y="375.5"/><use href="#g32" x="263.6" y="375.5"/><use href="#g33" x="276.7" y="375.5"/><use href="#g37" x="289.5" y="375.5"/><use href="#g33" x="301.5" y="375.5"/><use href="#g38" x="314.3" y="375.5"/><use href="#g39" x="321" y="375.5"/><use href="#g40" x="334.1" y="375.5"/><use href="#g41" x="347" y="375.5"/><use href="#g42" x="367.9" y="375.5"/><use href="#g34" x="381.1" y="375.5"/><use href="#g43" x="400" y="375.5"/><use href="#g35" x="412" y="375.5"/><use href="#g44" x="417.5" y="375.5"/><use href="#g38" x="423" y="375.5"/><use href="#g45" x="429.7" y="375.5"/><use href="#g46" x="442" y="375.5"/><use href="#g34" x="454.8" y="375.5"/></g></svg>
