<svg xmlns="http://www.w3.org/2000/svg" width="640" height="227" viewBox="0 0 640 227" role="img"><title>2026, published: Privacy-preserving automated EDA with local LLMs. NSRSIT 2026 · Best Overall Research, session award.</title><style>.d1,.d2,.d3,.halo,.ring,.star{transform-box:fill-box;transform-origin:center}
.d1{animation:d1 27s ease-in-out infinite alternate}
.d2{animation:d2 31s ease-in-out infinite alternate}
.d3{animation:d3 24s ease-in-out infinite alternate}
@keyframes d1{to{transform:translate(90px,36px) scale(1.18)}}
@keyframes d2{to{transform:translate(-120px,28px) scale(.9)}}
@keyframes d3{to{transform:translate(70px,-48px) scale(1.14)}}
.halo{animation:halo 2s ease-out infinite}
@keyframes halo{from{transform:scale(1);opacity:.6}to{transform:scale(2.8);opacity:0}}
.bob{animation:bob 3.2s ease-in-out infinite}
@keyframes bob{50%{transform:translateY(-7px)}}
.spin{animation:spin 6s linear infinite}
@keyframes spin{to{transform:rotate(360deg)}}
.bounce{animation:bounce 1.3s ease-in-out infinite}
@keyframes bounce{50%{transform:translateY(-13px)}}
.ring{animation:ring 2.4s ease-out infinite}
@keyframes ring{from{transform:scale(.2);opacity:.9}to{transform:scale(1);opacity:0}}
.blink{animation:blink 1.8s ease-in-out infinite}
@keyframes blink{0%,100%{opacity:.16}50%{opacity:1}}
.bar{animation:bar 1.6s ease-in-out infinite;transform-box:fill-box;transform-origin:50% 100%}
@keyframes bar{0%,100%{transform:scaleY(.3)}50%{transform:scaleY(1)}}
.scan{animation:scan 2.6s ease-in-out infinite alternate}
@keyframes scan{from{transform:translateY(-24px)}to{transform:translateY(24px)}}
.hue{animation:hue 6s linear infinite}
@keyframes hue{0%,100%{fill:#8fe3c2}25%{fill:#6fd3e0}50%{fill:#7fb6ff}75%{fill:#ffb38a}}
.star{animation:star 2.8s ease-in-out infinite}
@keyframes star{0%,100%{transform:scale(.8);opacity:.7}50%{transform:scale(1.06);opacity:1}}
.flicker{animation:flicker 3.4s linear infinite}
@keyframes flicker{0%,40%,48%,56%,100%{opacity:1}44%{opacity:.3}52%{opacity:.55}}
.typing{animation:typing 1.2s ease-in-out infinite}
@keyframes typing{0%,60%,100%{opacity:.25;transform:none}
30%{opacity:1;transform:translateY(-3px)}}
@media (prefers-reduced-motion:reduce){*{animation:none!important}}</style><defs><clipPath id="clip1"><rect width="640" height="227" rx="22"/></clipPath><radialGradient id="rg2"><stop offset="0" stop-color="#27c485" stop-opacity="0.12"/><stop offset=".45" stop-color="#27c485" stop-opacity="0.054"/><stop offset="1" stop-color="#27c485" stop-opacity="0"/></radialGradient><linearGradient id="lg3" x1="0" y1="0" x2="0" y2="1"><stop offset="0.5" stop-color="#06060a" stop-opacity="0"/><stop offset="1" stop-color="#06060a" stop-opacity="0.75"/></linearGradient><linearGradient id="lg4" x1="0.3" y1="0.1" x2="0.7" y2="0.9"><stop offset="0" stop-color="#fff" stop-opacity="0.08"/><stop offset="1" stop-color="#fff" stop-opacity="0.02"/></linearGradient><linearGradient id="lg5" x1="0" y1="0" x2="640" y2="0" gradientUnits="userSpaceOnUse"><stop offset="0" stop-color="#fff" stop-opacity="0"/><stop offset="0.5" stop-color="#fff" stop-opacity="0.24"/><stop offset="1" stop-color="#fff" stop-opacity="0"/></linearGradient><path id="g6" d="M9.3 0H1.1V-1.8L4.9 -5.2Q5.9 -6 6.4 -6.7Q6.9 -7.5 6.9 -8.3V-8.5Q6.9 -9.4 6.4 -9.9Q5.8 -10.4 4.9 -10.4Q3.9 -10.4 3.4 -9.9Q2.8 -9.4 2.6 -8.6L0.9 -9.2Q1.1 -9.7 1.4 -10.3Q1.7 -10.8 2.2 -11.2Q2.7 -11.6 3.4 -11.8Q4.1 -12.1 5 -12.1Q5.9 -12.1 6.7 -11.8Q7.4 -11.5 7.9 -11.1Q8.4 -10.6 8.6 -10Q8.9 -9.4 8.9 -8.6Q8.9 -7.9 8.7 -7.3Q8.4 -6.7 8.1 -6.1Q7.7 -5.6 7.2 -5Q6.6 -4.5 6 -4L3.1 -1.6H9.3V0Z"/><path id="g7" d="M5.1 0.2Q4 0.2 3.2 -0.2Q2.3 -0.6 1.8 -1.4Q1.3 -2.2 1 -3.3Q0.7 -4.5 0.7 -5.9Q0.7 -7.4 1 -8.5Q1.3 -9.7 1.8 -10.5Q2.3 -11.2 3.2 -11.7Q4 -12.1 5.1 -12.1Q6.2 -12.1 7 -11.7Q7.9 -11.2 8.4 -10.5Q8.9 -9.7 9.2 -8.5Q9.5 -7.4 9.5 -5.9Q9.5 -4.5 9.2 -3.3Q8.9 -2.2 8.4 -1.4Q7.9 -0.6 7 -0.2Q6.2 0.2 5.1 0.2ZM5.1 -1.4Q6.4 -1.4 6.9 -2.3Q7.5 -3.3 7.5 -4.9V-7Q7.5 -8.6 6.9 -9.5Q6.4 -10.5 5.1 -10.5Q4.5 -10.5 4 -10.3Q3.5 -10 3.2 -9.5Q3 -9.1 2.8 -8.4Q2.7 -7.8 2.7 -7V-4.9Q2.7 -4.1 2.8 -3.4Q3 -2.8 3.2 -2.3Q3.5 -1.9 4 -1.6Q4.5 -1.4 5.1 -1.4ZM5.1 -4.9Q4.5 -4.9 4.3 -5.2Q4 -5.4 4 -5.7V-6.1Q4 -6.5 4.3 -6.7Q4.5 -6.9 5.1 -6.9Q5.7 -6.9 5.9 -6.7Q6.2 -6.5 6.2 -6.1V-5.7Q6.2 -5.4 5.9 -5.2Q5.7 -4.9 5.1 -4.9Z"/><path id="g8" d="M5.1 0.2Q4.1 0.2 3.3 -0.1Q2.6 -0.4 2 -1Q1.5 -1.6 1.2 -2.5Q0.9 -3.3 0.9 -4.4Q0.9 -5.7 1.3 -6.9Q1.7 -8 2.3 -8.9Q2.9 -9.9 3.7 -10.6Q4.5 -11.4 5.2 -11.9H7.8Q6.7 -11.1 5.9 -10.5Q5.1 -9.8 4.5 -9.1Q3.9 -8.3 3.5 -7.6Q3.1 -6.8 2.9 -5.8L3 -5.8Q3.2 -6.1 3.4 -6.4Q3.7 -6.7 4 -7Q4.4 -7.2 4.8 -7.4Q5.3 -7.5 5.8 -7.5Q6.6 -7.5 7.2 -7.2Q7.9 -7 8.3 -6.5Q8.8 -6 9.1 -5.3Q9.4 -4.7 9.4 -3.8Q9.4 -2.9 9.1 -2.2Q8.8 -1.4 8.2 -0.9Q7.7 -0.4 6.9 -0.1Q6.1 0.2 5.1 0.2ZM5.1 -1.3Q6.2 -1.3 6.8 -1.9Q7.4 -2.5 7.4 -3.6V-3.7Q7.4 -4.8 6.8 -5.4Q6.2 -6 5.1 -6Q4 -6 3.5 -5.4Q2.9 -4.8 2.9 -3.7V-3.6Q2.9 -2.5 3.5 -1.9Q4 -1.3 5.1 -1.3Z"/><path id="g9" d="M1.3 0V-10.8H5.3Q6.9 -10.8 7.7 -10Q8.5 -9.1 8.5 -7.6Q8.5 -6 7.7 -5.2Q6.9 -4.3 5.3 -4.3H3V0H1.3ZM3 -5.8H5.1Q6.7 -5.8 6.7 -7.2V-7.9Q6.7 -9.4 5.1 -9.4H3V-5.8Z"/><path id="g10" d="M2.8 -10.8V-4.2Q2.8 -3.5 2.8 -3Q2.9 -2.4 3.1 -2Q3.3 -1.7 3.6 -1.5Q4 -1.3 4.7 -1.3Q5.3 -1.3 5.7 -1.5Q6 -1.7 6.2 -2Q6.4 -2.4 6.5 -3Q6.5 -3.5 6.5 -4.2V-10.8H8.2V-4.5Q8.2 -3.3 8.1 -2.4Q8 -1.6 7.6 -1Q7.2 -0.4 6.5 -0.1Q5.8 0.2 4.7 0.2Q3.5 0.2 2.8 -0.1Q2.1 -0.4 1.7 -1Q1.3 -1.6 1.2 -2.4Q1.1 -3.3 1.1 -4.5V-10.8H2.8Z"/><path id="g11" d="M1.3 -10.8H5Q6.5 -10.8 7.3 -10.1Q8.1 -9.3 8.1 -8Q8.1 -7 7.7 -6.5Q7.2 -5.9 6.4 -5.7V-5.6Q7.3 -5.4 7.9 -4.8Q8.5 -4.2 8.5 -3.1Q8.5 -2.4 8.3 -1.8Q8.1 -1.3 7.7 -0.9Q7.3 -0.4 6.7 -0.2Q6.1 0 5.4 0H1.3V-10.8ZM4.9 -1.3Q5.8 -1.3 6.2 -1.7Q6.7 -2 6.7 -2.8V-3.4Q6.7 -4.2 6.2 -4.5Q5.8 -4.9 4.9 -4.9H3V-1.3H4.9ZM4.7 -6.2Q5.5 -6.2 5.9 -6.5Q6.3 -6.8 6.3 -7.5V-8.1Q6.3 -8.9 5.9 -9.2Q5.5 -9.5 4.7 -9.5H3V-6.2H4.7Z"/><path id="g12" d="M1.7 0V-10.8H3.4V-1.5H8.3V0H1.7Z"/><path id="g13" d="M1.2 0V-1.3H3.8V-9.5H1.2V-10.8H8.1V-9.5H5.5V-1.3H8.1V0H1.2Z"/><path id="g14" d="M4.6 0.2Q3.1 0.2 2.2 -0.3Q1.2 -0.8 0.6 -1.6L1.7 -2.7Q2.3 -2 3 -1.6Q3.7 -1.3 4.6 -1.3Q5.6 -1.3 6.2 -1.7Q6.7 -2.2 6.7 -3.1Q6.7 -3.8 6.3 -4.1Q5.9 -4.5 5 -4.7L3.8 -4.9Q3 -5 2.5 -5.3Q2 -5.6 1.6 -6Q1.3 -6.4 1.2 -6.8Q1 -7.3 1 -7.9Q1 -9.4 2 -10.2Q3 -11 4.7 -11Q6 -11 6.9 -10.6Q7.8 -10.2 8.4 -9.4L7.3 -8.4Q6.9 -8.9 6.2 -9.2Q5.6 -9.6 4.7 -9.6Q3.8 -9.6 3.3 -9.2Q2.8 -8.7 2.8 -8Q2.8 -7.3 3.2 -6.9Q3.5 -6.5 4.6 -6.4L5.7 -6.2Q7.2 -5.9 7.8 -5.1Q8.5 -4.3 8.5 -3.1Q8.5 -2.4 8.2 -1.8Q8 -1.2 7.5 -0.7Q7 -0.3 6.2 -0.1Q5.5 0.2 4.6 0.2Z"/><path id="g15" d="M6.4 -4.8H2.9V0H1.1V-10.8H2.9V-6.2H6.4V-10.8H8.2V0H6.4V-4.8Z"/><path id="g16" d="M1.3 0V-10.8H8.1V-9.4H3.1V-6.2H7.9V-4.8H3.1V-1.5H8.1V0H1.3Z"/><path id="g17" d="M1.3 -10.8H4.5Q6.6 -10.8 7.6 -9.4Q8.6 -8.1 8.6 -5.4Q8.6 -2.8 7.6 -1.4Q6.6 0 4.5 0H1.3V-10.8ZM4.4 -1.4Q5.6 -1.4 6.2 -2.2Q6.7 -3 6.7 -4.5V-6.3Q6.7 -7.8 6.2 -8.6Q5.6 -9.4 4.4 -9.4H3V-1.4H4.4Z"/><path id="g18" d="M1.7 0V-20.4H9.5Q11.7 -20.4 13.4 -19.6Q15 -18.8 15.9 -17.3Q16.8 -15.9 16.8 -13.9Q16.8 -11.9 15.9 -10.4Q14.9 -8.9 13.3 -8.1Q11.6 -7.3 9.4 -7.3H3.7V-10.4H9.3Q10.5 -10.4 11.4 -10.8Q12.2 -11.3 12.7 -12Q13.2 -12.8 13.2 -13.9Q13.2 -14.9 12.7 -15.7Q12.2 -16.5 11.4 -16.9Q10.5 -17.3 9.3 -17.3H5.3V0H1.7Z"/><path id="g19" d="M1.5 0V-14.4H4.9V-12H4.9Q5.3 -13.3 6.1 -13.9Q7 -14.6 8.4 -14.6Q8.7 -14.6 9 -14.6Q9.3 -14.5 9.5 -14.5V-11.5Q9.3 -11.5 8.9 -11.5Q8.4 -11.6 7.9 -11.6Q7.1 -11.6 6.4 -11.2Q5.8 -10.8 5.4 -10.1Q5 -9.3 5 -8.2V0H1.5Z"/><path id="g20" d="M1.5 0V-14.4H5V0H1.5ZM3.2 -16.6Q2.4 -16.6 1.8 -17.1Q1.2 -17.7 1.2 -18.5Q1.2 -19.4 1.8 -19.9Q2.4 -20.5 3.2 -20.5Q4.1 -20.5 4.7 -19.9Q5.3 -19.4 5.3 -18.5Q5.3 -17.7 4.7 -17.1Q4.1 -16.6 3.2 -16.6Z"/><path id="g21" d="M5.7 0 0.2 -14.4H3.9L6.5 -6.9Q6.9 -5.7 7.3 -4.5Q7.7 -3.3 8 -2.1H7.2Q7.6 -3.3 7.9 -4.5Q8.3 -5.7 8.7 -6.9L11.3 -14.4H14.9L9.4 0H5.7Z"/><path id="g22" d="M5.9 0.2Q4.5 0.2 3.4 -0.2Q2.2 -0.7 1.6 -1.7Q0.9 -2.7 0.9 -4.1Q0.9 -5.3 1.4 -6.1Q1.9 -6.9 2.7 -7.4Q3.5 -7.9 4.5 -8.1Q5.5 -8.4 6.6 -8.5Q8 -8.7 8.7 -8.8Q9.5 -8.9 9.9 -9.1Q10.2 -9.3 10.2 -9.8V-9.9Q10.2 -10.6 9.9 -11Q9.6 -11.5 9 -11.8Q8.4 -12 7.6 -12Q6.7 -12 6.1 -11.8Q5.5 -11.5 5.1 -11Q4.7 -10.6 4.7 -9.9H1.4Q1.4 -11.4 2.2 -12.5Q3 -13.5 4.4 -14.1Q5.8 -14.7 7.6 -14.7Q9.1 -14.7 10.2 -14.4Q11.3 -14.1 12 -13.4Q12.8 -12.8 13.2 -11.9Q13.6 -11 13.6 -9.8V0H10.2V-2H10.2Q9.8 -1.4 9.3 -0.9Q8.8 -0.4 7.9 -0.1Q7.1 0.2 5.9 0.2ZM6.8 -2.3Q7.9 -2.3 8.7 -2.7Q9.4 -3.1 9.8 -3.8Q10.2 -4.5 10.2 -5.3V-6.9Q10.1 -6.8 9.8 -6.7Q9.4 -6.6 9 -6.5Q8.6 -6.4 8.1 -6.4Q7.6 -6.3 7 -6.2Q6.3 -6.1 5.7 -5.9Q5.1 -5.6 4.7 -5.2Q4.3 -4.8 4.3 -4.1Q4.3 -3.6 4.6 -3.2Q4.9 -2.8 5.5 -2.5Q6 -2.3 6.8 -2.3Z"/><path id="g23" d="M7.9 0.3Q5.8 0.3 4.2 -0.6Q2.6 -1.6 1.7 -3.3Q0.9 -5 0.9 -7.2Q0.9 -9.4 1.7 -11.1Q2.6 -12.8 4.2 -13.8Q5.8 -14.8 7.9 -14.8Q9.3 -14.8 10.4 -14.4Q11.6 -14 12.4 -13.2Q13.3 -12.5 13.8 -11.5Q14.4 -10.5 14.5 -9.3H11.1Q11 -9.9 10.7 -10.3Q10.5 -10.8 10.1 -11.2Q9.7 -11.5 9.2 -11.7Q8.6 -11.9 8 -11.9Q6.8 -11.9 6 -11.3Q5.2 -10.7 4.8 -9.7Q4.3 -8.6 4.3 -7.2Q4.3 -5.8 4.8 -4.7Q5.2 -3.7 6 -3.1Q6.8 -2.5 8 -2.5Q8.6 -2.5 9.2 -2.7Q9.7 -2.9 10.1 -3.3Q10.4 -3.6 10.7 -4.1Q10.9 -4.6 11.1 -5.2H14.5Q14.4 -4 13.9 -3Q13.3 -2 12.5 -1.2Q11.6 -0.5 10.4 -0.1Q9.3 0.3 7.9 0.3Z"/><path id="g24" d="M1.8 5.7V2.9H3.5Q4 2.9 4.3 2.7Q4.6 2.6 4.8 2.2Q5.1 1.9 5.3 1.3L5.8 -0.1L0.2 -14.4H3.9L6.5 -6.9Q7 -5.7 7.3 -4.5Q7.7 -3.3 8.1 -2.1H7.1Q7.5 -3.3 7.8 -4.5Q8.2 -5.7 8.6 -6.9L11.3 -14.4H14.9L8.4 2.4Q8 3.5 7.4 4.2Q6.7 5 5.9 5.3Q5.1 5.7 4 5.7Q3.5 5.7 2.9 5.7Q2.3 5.7 1.8 5.7Z"/><path id="g25" d="M10.7 -9.6V-6.7H1.6V-9.6H10.7Z"/><path id="g26" d="M1.5 5.7V-14.4H4.9V-12.4H5Q5.4 -13.2 6.1 -13.7Q6.7 -14.2 7.6 -14.5Q8.4 -14.7 9.3 -14.7Q11.2 -14.7 12.6 -13.8Q14 -12.8 14.8 -11.1Q15.6 -9.5 15.6 -7.2Q15.6 -5 14.8 -3.3Q14 -1.6 12.6 -0.7Q11.2 0.3 9.3 0.3Q8.4 0.3 7.6 0Q6.8 -0.3 6.1 -0.8Q5.5 -1.3 5 -2.2H5V5.7H1.5ZM8.5 -2.6Q9.6 -2.6 10.4 -3.1Q11.2 -3.7 11.6 -4.7Q12.1 -5.7 12.1 -7.2Q12.1 -8.7 11.6 -9.8Q11.2 -10.8 10.4 -11.3Q9.6 -11.9 8.5 -11.9Q7.4 -11.9 6.5 -11.3Q5.7 -10.7 5.2 -9.7Q4.8 -8.6 4.8 -7.2Q4.8 -5.8 5.2 -4.8Q5.7 -3.7 6.5 -3.2Q7.4 -2.6 8.5 -2.6Z"/><path id="g27" d="M7.9 0.3Q5.7 0.3 4.2 -0.6Q2.6 -1.6 1.7 -3.3Q0.9 -5 0.9 -7.2Q0.9 -9.4 1.7 -11.1Q2.6 -12.8 4.2 -13.8Q5.7 -14.8 7.8 -14.8Q9.3 -14.8 10.6 -14.2Q11.9 -13.7 12.8 -12.7Q13.7 -11.7 14.2 -10.3Q14.7 -8.9 14.7 -7.3V-6.3H2.2V-8.7H13L11.4 -8.1Q11.4 -9.3 11 -10.2Q10.5 -11.1 9.7 -11.5Q8.9 -12 7.8 -12Q6.7 -12 5.9 -11.5Q5.1 -11.1 4.7 -10.2Q4.2 -9.3 4.2 -8.1V-6.6Q4.2 -5.3 4.7 -4.4Q5.1 -3.4 6 -2.9Q6.8 -2.4 8 -2.4Q8.9 -2.4 9.5 -2.6Q10.2 -2.9 10.6 -3.4Q11.1 -3.8 11.3 -4.5H14.5Q14.2 -3 13.3 -2Q12.4 -0.9 11 -0.3Q9.6 0.3 7.9 0.3Z"/><path id="g28" d="M7.2 0.3Q5.4 0.3 4 -0.2Q2.6 -0.8 1.8 -1.8Q1 -2.9 0.8 -4.5H4.3Q4.4 -3.4 5.1 -2.8Q5.8 -2.2 7.1 -2.2Q8.4 -2.2 9.1 -2.7Q9.8 -3.2 9.8 -4Q9.8 -4.6 9.3 -5Q8.8 -5.4 7.8 -5.6L5.4 -6.1Q3.3 -6.6 2.2 -7.6Q1.2 -8.7 1.2 -10.3Q1.2 -11.6 1.9 -12.6Q2.6 -13.6 3.9 -14.2Q5.2 -14.8 7 -14.8Q8.7 -14.8 10.1 -14.2Q11.4 -13.6 12.2 -12.5Q12.9 -11.4 13 -9.9H9.7Q9.7 -10.9 9 -11.5Q8.2 -12.2 7.1 -12.2Q5.9 -12.2 5.3 -11.7Q4.6 -11.2 4.6 -10.4Q4.6 -9.8 5.1 -9.4Q5.6 -9 6.5 -8.8L9.1 -8.2Q11.3 -7.8 12.3 -6.8Q13.3 -5.8 13.3 -4.3Q13.3 -2.8 12.5 -1.8Q11.7 -0.8 10.4 -0.2Q9 0.3 7.2 0.3Z"/><path id="g29" d="M5 -8.2V0H1.5V-14.4H4.9V-10.8H4.2Q4.9 -12.7 6.2 -13.7Q7.5 -14.7 9.4 -14.7Q10.9 -14.7 12 -14.1Q13.2 -13.4 13.8 -12.1Q14.5 -10.9 14.5 -9V0H11V-8.5Q11 -10.1 10.3 -10.9Q9.5 -11.7 8.1 -11.7Q7.2 -11.7 6.5 -11.3Q5.8 -11 5.4 -10.2Q5 -9.4 5 -8.2Z"/><path id="g30" d="M8.1 5.9Q6.2 5.9 4.8 5.4Q3.4 4.8 2.6 3.8Q1.8 2.7 1.6 1.3H5Q5.1 2 5.5 2.4Q6 2.8 6.6 3Q7.3 3.2 8.1 3.2Q9.7 3.2 10.6 2.4Q11.5 1.5 11.5 -0.2V-2.4H11.5Q11 -1.5 10.4 -1Q9.7 -0.4 8.9 -0.2Q8.1 0.1 7.1 0.1Q5.2 0.1 3.8 -0.8Q2.4 -1.8 1.6 -3.5Q0.9 -5.1 0.9 -7.3Q0.9 -9.5 1.6 -11.2Q2.4 -12.8 3.8 -13.8Q5.2 -14.7 7.1 -14.7Q8 -14.7 8.8 -14.5Q9.7 -14.2 10.3 -13.7Q11 -13.1 11.5 -12.3H11.5V-14.4H14.9V-0.4Q14.9 1.9 14 3.2Q13.1 4.6 11.6 5.3Q10 5.9 8.1 5.9ZM7.9 -2.7Q9 -2.7 9.9 -3.3Q10.7 -3.9 11.2 -4.9Q11.6 -5.9 11.6 -7.3Q11.6 -8.7 11.2 -9.7Q10.7 -10.8 9.9 -11.3Q9 -11.9 7.9 -11.9Q6.9 -11.9 6.1 -11.4Q5.2 -10.8 4.8 -9.8Q4.3 -8.8 4.3 -7.3Q4.3 -5.9 4.8 -4.8Q5.2 -3.8 6.1 -3.3Q6.9 -2.7 7.9 -2.7Z"/><path id="g31" d="M6.7 0.3Q5.2 0.3 4 -0.4Q2.8 -1 2.2 -2.3Q1.5 -3.6 1.5 -5.4V-14.4H5V-6Q5 -4.4 5.7 -3.6Q6.5 -2.7 7.9 -2.7Q8.8 -2.7 9.5 -3.1Q10.2 -3.5 10.6 -4.3Q11 -5 11 -6.3V-14.4H14.5V0H11.1V-3.7H11.8Q11.1 -1.8 9.8 -0.7Q8.6 0.3 6.7 0.3Z"/><path id="g32" d="M9.2 -14.4V-11.7H0.2V-14.4H9.2ZM2.8 -18.4H6.2V-4.1Q6.2 -3.4 6.5 -3.1Q6.8 -2.8 7.7 -2.8Q8 -2.8 8.4 -2.8Q8.9 -2.8 9.2 -2.8V0Q8.8 0 8.2 0Q7.6 0 7.1 0Q4.9 0 3.8 -0.9Q2.8 -1.8 2.8 -3.6V-18.4Z"/><path id="g33" d="M8 0.3Q5.9 0.3 4.3 -0.6Q2.6 -1.6 1.8 -3.3Q0.9 -5 0.9 -7.2Q0.9 -9.5 1.8 -11.2Q2.6 -12.9 4.3 -13.8Q5.9 -14.8 8 -14.8Q10.1 -14.8 11.7 -13.8Q13.3 -12.9 14.2 -11.2Q15.1 -9.5 15.1 -7.2Q15.1 -5 14.2 -3.3Q13.3 -1.6 11.7 -0.6Q10.1 0.3 8 0.3ZM8 -2.6Q9.1 -2.6 9.9 -3.1Q10.7 -3.7 11.2 -4.7Q11.6 -5.8 11.6 -7.2Q11.6 -8.7 11.2 -9.7Q10.7 -10.7 9.9 -11.3Q9.1 -11.9 8 -11.9Q6.9 -11.9 6.1 -11.3Q5.2 -10.8 4.8 -9.7Q4.3 -8.7 4.3 -7.2Q4.3 -5.8 4.8 -4.7Q5.2 -3.7 6.1 -3.1Q6.9 -2.6 8 -2.6Z"/><path id="g34" d="M1.5 0V-14.4H4.9V-11.3H4.6Q5 -12.4 5.7 -13.2Q6.4 -14 7.3 -14.3Q8.2 -14.7 9.2 -14.7Q10.9 -14.7 12.1 -13.8Q13.3 -12.8 13.6 -11.3H13.1Q13.4 -12.3 14.1 -13.1Q14.8 -13.9 15.8 -14.3Q16.8 -14.7 18 -14.7Q19.3 -14.7 20.4 -14.1Q21.5 -13.5 22.2 -12.4Q22.8 -11.2 22.8 -9.5V0H19.3V-9Q19.3 -10.5 18.6 -11.1Q17.8 -11.8 16.7 -11.8Q15.8 -11.8 15.2 -11.4Q14.5 -11.1 14.2 -10.4Q13.8 -9.7 13.8 -8.9V0H10.5V-9.2Q10.5 -10.4 9.7 -11.1Q9 -11.8 7.9 -11.8Q7.1 -11.8 6.4 -11.4Q5.8 -11.1 5.4 -10.4Q5 -9.7 5 -8.6V0H1.5Z"/><path id="g35" d="M7.1 0.3Q5.2 0.3 3.8 -0.7Q2.4 -1.6 1.6 -3.3Q0.9 -5 0.9 -7.2Q0.9 -9.5 1.6 -11.1Q2.4 -12.8 3.8 -13.8Q5.2 -14.7 7.1 -14.7Q8 -14.7 8.8 -14.5Q9.7 -14.2 10.3 -13.7Q11 -13.2 11.4 -12.4H11.5V-20.4H14.9V0H11.5V-2.2H11.5Q11 -1.4 10.4 -0.8Q9.7 -0.3 8.9 0Q8.1 0.3 7.1 0.3ZM7.9 -2.6Q9 -2.6 9.9 -3.2Q10.7 -3.7 11.2 -4.8Q11.6 -5.8 11.6 -7.2Q11.6 -8.6 11.2 -9.7Q10.7 -10.7 9.9 -11.3Q9 -11.9 7.9 -11.9Q6.9 -11.9 6.1 -11.3Q5.2 -10.8 4.8 -9.8Q4.3 -8.7 4.3 -7.2Q4.3 -5.7 4.8 -4.7Q5.2 -3.7 6.1 -3.1Q6.9 -2.6 7.9 -2.6Z"/><path id="g36" d="M1.7 0V-20.4H15.8V-17.2H5.3V-11.9H15.1V-8.8H5.3V-3.1H15.8V0H1.7Z"/><path id="g37" d="M8.6 0H3.4V-3.1H8.4Q10.6 -3.1 12 -3.9Q13.5 -4.8 14.2 -6.4Q14.9 -7.9 14.9 -10.2Q14.9 -12.5 14.2 -14Q13.5 -15.6 12.1 -16.4Q10.6 -17.3 8.5 -17.3H3.3V-20.4H8.7Q11.8 -20.4 14 -19.1Q16.2 -17.9 17.3 -15.6Q18.5 -13.3 18.5 -10.2Q18.5 -7.1 17.3 -4.8Q16.2 -2.5 13.9 -1.2Q11.7 0 8.6 0ZM5.3 -20.4V0H1.7V-20.4H5.3Z"/><path id="g38" d="M0.2 0 7.4 -20.4H12L19.2 0H15.3L11.7 -10.7Q11.2 -12.4 10.6 -14.3Q10 -16.2 9.2 -18.8H10.2Q9.5 -16.2 8.9 -14.3Q8.3 -12.4 7.7 -10.7L4.1 0H0.2ZM4.5 -4.9V-7.8H14.9V-4.9H4.5Z"/><path id="g39" d="M4.7 0 0.2 -14.4H3.9L5.4 -9Q5.8 -7.4 6.1 -5.8Q6.5 -4.2 6.9 -2.6H6.4Q6.8 -4.2 7.2 -5.8Q7.6 -7.4 8 -9L9.6 -14.4H12.7L14.3 -9Q14.7 -7.4 15.1 -5.8Q15.5 -4.2 15.9 -2.6H15.4Q15.8 -4.2 16.1 -5.8Q16.5 -7.4 16.9 -9L18.4 -14.4H22.1L17.6 0H14L12.2 -6Q12 -6.9 11.8 -7.8Q11.5 -8.7 11.3 -9.7Q11 -10.6 10.8 -11.5H11.5Q11.3 -10.6 11 -9.7Q10.8 -8.7 10.5 -7.8Q10.3 -6.9 10 -6L8.3 0H4.7Z"/><path id="g40" d="M5 -8.2V0H1.5V-20.4H5V-10.8H4.2Q4.9 -12.7 6.2 -13.7Q7.5 -14.7 9.4 -14.7Q10.9 -14.7 12 -14.1Q13.2 -13.4 13.8 -12.1Q14.5 -10.9 14.5 -9V0H11V-8.5Q11 -10.1 10.3 -10.9Q9.5 -11.7 8.1 -11.7Q7.2 -11.7 6.5 -11.3Q5.8 -11 5.4 -10.2Q5 -9.4 5 -8.2Z"/><path id="g41" d="M5 -20.4V0H1.5V-20.4H5Z"/><path id="g42" d="M1.7 0V-20.4H5.3V-3.1H14.8V0H1.7Z"/><path id="g43" d="M1.7 0V-20.4H6.9L10.9 -9.7Q11.1 -9.1 11.3 -8.2Q11.6 -7.4 11.9 -6.5Q12.2 -5.6 12.4 -4.8Q12.7 -3.9 12.8 -3.4H11.9Q12.1 -3.9 12.3 -4.8Q12.6 -5.6 12.9 -6.5Q13.1 -7.4 13.4 -8.2Q13.7 -9.1 13.9 -9.7L17.8 -20.4H23V0H19.4V-10.4Q19.4 -11.1 19.5 -11.9Q19.5 -12.8 19.5 -13.8Q19.5 -14.8 19.6 -15.8Q19.6 -16.8 19.6 -17.7H20Q19.7 -16.7 19.4 -15.6Q19.1 -14.6 18.7 -13.6Q18.4 -12.6 18.2 -11.8Q17.9 -11 17.7 -10.4L13.8 0H10.9L7 -10.4Q6.8 -11 6.5 -11.8Q6.2 -12.6 5.9 -13.6Q5.6 -14.6 5.2 -15.6Q4.9 -16.7 4.5 -17.7H5.1Q5.1 -16.8 5.1 -15.8Q5.2 -14.8 5.2 -13.8Q5.2 -12.8 5.2 -11.9Q5.3 -11.1 5.3 -10.4V0H1.7Z"/><path id="g44" d="M1.8 0V-14.6H3.9L9.9 -5.2Q10.1 -4.9 10.4 -4.3Q10.8 -3.8 11.1 -3Q11.5 -2.3 11.9 -1.5H11.6Q11.6 -2.4 11.5 -3.1Q11.5 -3.9 11.5 -4.5Q11.5 -5.2 11.5 -5.6V-14.6H13.3V0H11.1L5.8 -8.3Q5.5 -8.9 5.1 -9.5Q4.7 -10.1 4.3 -10.9Q3.8 -11.7 3.1 -13H3.4Q3.5 -11.9 3.5 -11Q3.6 -10.1 3.6 -9.4Q3.6 -8.7 3.6 -8.3V0H1.8Z"/><path id="g45" d="M6.4 0.3Q4.8 0.3 3.7 -0.3Q2.5 -0.8 1.9 -1.7Q1.2 -2.6 1.1 -3.8H3Q3.1 -3 3.6 -2.5Q4.1 -1.9 4.8 -1.7Q5.6 -1.4 6.4 -1.4Q7.4 -1.4 8.2 -1.7Q9 -2.1 9.4 -2.6Q9.9 -3.2 9.9 -4Q9.9 -4.7 9.5 -5.1Q9.1 -5.6 8.4 -5.9Q7.8 -6.1 7 -6.4L5.3 -6.9Q3.5 -7.4 2.5 -8.3Q1.5 -9.2 1.5 -10.7Q1.5 -11.9 2.2 -12.8Q2.9 -13.7 4 -14.2Q5.1 -14.7 6.5 -14.7Q8 -14.7 9.1 -14.2Q10.2 -13.7 10.8 -12.9Q11.5 -12 11.5 -10.9H9.7Q9.6 -11.9 8.7 -12.5Q7.8 -13.1 6.5 -13.1Q5.5 -13.1 4.8 -12.8Q4.1 -12.5 3.7 -12Q3.3 -11.4 3.3 -10.7Q3.3 -10 3.8 -9.5Q4.3 -9.1 4.9 -8.8Q5.6 -8.5 6.1 -8.4L7.6 -8Q8.2 -7.8 8.9 -7.6Q9.6 -7.3 10.2 -6.8Q10.9 -6.4 11.3 -5.7Q11.7 -5 11.7 -4Q11.7 -2.8 11.1 -1.8Q10.5 -0.9 9.3 -0.3Q8.1 0.3 6.4 0.3Z"/><path id="g46" d="M1.8 0V-14.6H6.7Q8.4 -14.6 9.5 -14Q10.6 -13.4 11.2 -12.4Q11.7 -11.4 11.7 -10.1Q11.7 -8.8 11.2 -7.8Q10.6 -6.8 9.5 -6.2Q8.4 -5.6 6.7 -5.6H2.8V-7.3H6.7Q7.8 -7.3 8.5 -7.6Q9.2 -8 9.5 -8.6Q9.9 -9.2 9.9 -10.1Q9.9 -10.9 9.5 -11.6Q9.2 -12.2 8.5 -12.6Q7.8 -12.9 6.6 -12.9H3.6V0H1.8ZM10.1 0 6.6 -6.6H8.7L12.3 0H10.1Z"/><path id="g47" d="M3.6 -14.6V0H1.8V-14.6H3.6Z"/><path id="g48" d="M1 -12.9V-14.6H12V-12.9H7.4V0H5.5V-12.9H1Z"/><path id="g49" d="M1.5 0V-1.3L6.3 -6.6Q7.1 -7.5 7.7 -8.1Q8.2 -8.8 8.5 -9.4Q8.8 -10 8.8 -10.7Q8.8 -11.4 8.4 -12Q8 -12.5 7.4 -12.8Q6.8 -13.1 6 -13.1Q5.2 -13.1 4.6 -12.8Q4 -12.5 3.7 -11.9Q3.3 -11.2 3.3 -10.4H1.5Q1.5 -11.7 2.1 -12.7Q2.7 -13.7 3.8 -14.2Q4.8 -14.7 6.1 -14.7Q7.4 -14.7 8.4 -14.2Q9.4 -13.7 10 -12.7Q10.5 -11.8 10.5 -10.7Q10.5 -9.9 10.2 -9.1Q10 -8.4 9.2 -7.5Q8.5 -6.5 7.2 -5.1L4.1 -1.7V-1.6H10.8V0H1.5Z"/><path id="g50" d="M6.3 0.2Q4.7 0.2 3.5 -0.7Q2.4 -1.6 1.8 -3.2Q1.2 -4.9 1.2 -7.3Q1.2 -9.6 1.8 -11.3Q2.4 -13 3.6 -13.9Q4.7 -14.7 6.3 -14.7Q7.9 -14.7 9.1 -13.9Q10.2 -13 10.8 -11.3Q11.4 -9.6 11.4 -7.3Q11.4 -4.9 10.8 -3.2Q10.2 -1.6 9.1 -0.7Q7.9 0.2 6.3 0.2ZM6.3 -1.4Q7.4 -1.4 8.1 -2.1Q8.9 -2.8 9.2 -4.1Q9.6 -5.4 9.6 -7.3Q9.6 -9.1 9.2 -10.4Q8.9 -11.7 8.1 -12.4Q7.4 -13.1 6.3 -13.1Q5.2 -13.1 4.5 -12.4Q3.8 -11.7 3.4 -10.4Q3 -9.1 3 -7.3Q3 -5.4 3.4 -4.1Q3.8 -2.8 4.5 -2.1Q5.2 -1.4 6.3 -1.4Z"/><path id="g51" d="M6.3 0.2Q5.4 0.2 4.5 -0.1Q3.6 -0.5 2.8 -1.2Q2.1 -2 1.6 -3.4Q1.2 -4.7 1.2 -6.7Q1.2 -8.6 1.6 -10.1Q1.9 -11.6 2.6 -12.7Q3.3 -13.7 4.3 -14.2Q5.3 -14.7 6.5 -14.7Q7.8 -14.7 8.7 -14.3Q9.7 -13.8 10.3 -12.9Q10.9 -12 11.1 -10.9H9.3Q9 -11.8 8.3 -12.5Q7.7 -13.1 6.5 -13.1Q5.4 -13.1 4.6 -12.5Q3.8 -11.8 3.4 -10.6Q2.9 -9.3 2.9 -7.6H3.1Q3.5 -8.2 4 -8.6Q4.6 -9.1 5.2 -9.3Q5.9 -9.5 6.7 -9.5Q7.9 -9.5 8.9 -8.9Q10 -8.3 10.6 -7.2Q11.2 -6.1 11.2 -4.7Q11.2 -3.3 10.6 -2.2Q10 -1.1 8.9 -0.5Q7.8 0.2 6.3 0.2ZM6.3 -1.4Q7.2 -1.4 7.9 -1.9Q8.6 -2.3 9 -3.1Q9.4 -3.8 9.4 -4.7Q9.4 -5.6 9 -6.3Q8.6 -7 7.9 -7.5Q7.2 -7.9 6.4 -7.9Q5.7 -7.9 5.1 -7.6Q4.6 -7.4 4.1 -6.9Q3.7 -6.5 3.5 -5.9Q3.2 -5.3 3.2 -4.7Q3.2 -3.8 3.6 -3.1Q4 -2.3 4.7 -1.9Q5.4 -1.4 6.3 -1.4Z"/><path id="g52" d="M2.9 -5.6Q2.3 -5.6 1.9 -6Q1.6 -6.4 1.6 -6.9Q1.6 -7.5 1.9 -7.8Q2.3 -8.2 2.9 -8.2Q3.4 -8.2 3.8 -7.8Q4.2 -7.5 4.2 -6.9Q4.2 -6.4 3.8 -6Q3.4 -5.6 2.9 -5.6Z"/><path id="g53" d="M1.8 0V-14.6H6.9Q8.4 -14.6 9.4 -14Q10.4 -13.5 10.9 -12.6Q11.4 -11.8 11.4 -10.7Q11.4 -9.8 11.1 -9.1Q10.7 -8.5 10.2 -8.2Q9.6 -7.8 9 -7.6V-7.5Q9.7 -7.5 10.4 -7Q11 -6.6 11.5 -5.8Q12 -5 12 -3.9Q12 -2.8 11.5 -1.9Q10.9 -1 9.9 -0.5Q8.8 0 7.1 0H1.8ZM3.6 -1.6H7Q8.7 -1.6 9.4 -2.3Q10.2 -2.9 10.2 -3.9Q10.2 -4.6 9.8 -5.2Q9.4 -5.9 8.7 -6.2Q8.1 -6.6 7.1 -6.6H3.6V-1.6ZM3.6 -8.2H6.8Q7.6 -8.2 8.2 -8.5Q8.9 -8.8 9.2 -9.3Q9.6 -9.9 9.6 -10.7Q9.6 -11.6 9 -12.3Q8.3 -12.9 6.9 -12.9H3.6V-8.2Z"/><path id="g54" d="M6.1 0.2Q4.6 0.2 3.4 -0.5Q2.3 -1.2 1.6 -2.4Q1 -3.7 1 -5.4Q1 -7.1 1.6 -8.3Q2.2 -9.6 3.3 -10.3Q4.4 -11.1 5.9 -11.1Q6.8 -11.1 7.6 -10.8Q8.5 -10.5 9.2 -9.8Q9.9 -9.2 10.3 -8.2Q10.7 -7.1 10.7 -5.6V-4.9H2.2V-6.3H9.7L8.9 -5.8Q8.9 -6.9 8.6 -7.7Q8.2 -8.5 7.6 -9Q6.9 -9.5 5.9 -9.5Q4.9 -9.5 4.2 -9Q3.5 -8.5 3.2 -7.7Q2.8 -7 2.8 -6.1V-5.1Q2.8 -3.9 3.2 -3Q3.6 -2.2 4.4 -1.8Q5.1 -1.3 6.1 -1.3Q6.8 -1.3 7.3 -1.5Q7.8 -1.7 8.2 -2.1Q8.6 -2.5 8.8 -3L10.5 -2.5Q10.3 -1.7 9.6 -1.1Q9 -0.5 8.1 -0.1Q7.3 0.2 6.1 0.2Z"/><path id="g55" d="M5.3 0.2Q4.1 0.2 3.3 -0.1Q2.4 -0.4 1.8 -1.1Q1.2 -1.7 1.1 -2.6L2.7 -3Q3 -2.1 3.6 -1.7Q4.3 -1.3 5.2 -1.3Q6.4 -1.3 7.1 -1.8Q7.7 -2.3 7.7 -3Q7.7 -3.5 7.3 -3.9Q6.9 -4.3 6.1 -4.5L4.3 -4.9Q2.8 -5.2 2.1 -6Q1.4 -6.7 1.4 -7.9Q1.4 -8.8 1.9 -9.5Q2.4 -10.2 3.4 -10.6Q4.3 -11.1 5.4 -11.1Q6.6 -11.1 7.3 -10.7Q8.1 -10.4 8.6 -9.8Q9.1 -9.2 9.4 -8.4L7.8 -8Q7.5 -8.6 7 -9.1Q6.5 -9.6 5.4 -9.6Q4.5 -9.6 3.8 -9.1Q3.2 -8.7 3.2 -8Q3.2 -7.4 3.6 -7Q4 -6.6 5 -6.4L6.7 -6Q8.1 -5.7 8.8 -4.9Q9.6 -4.2 9.6 -3.1Q9.6 -2.1 9 -1.4Q8.5 -0.6 7.5 -0.2Q6.5 0.2 5.3 0.2Z"/><path id="g56" d="M5.8 -10.9V-9.4H0.2V-10.9H5.8ZM1.8 -13.5H3.6V-2.8Q3.6 -2.1 3.9 -1.8Q4.2 -1.4 4.9 -1.4Q5 -1.4 5.3 -1.5Q5.6 -1.5 5.8 -1.5L6.1 -0.1Q5.9 0 5.5 0.1Q5.2 0.1 4.8 0.1Q3.4 0.1 2.6 -0.6Q1.8 -1.4 1.8 -2.7V-13.5Z"/><path id="g57" d="M7.7 0.2Q5.8 0.2 4.3 -0.7Q2.9 -1.6 2 -3.3Q1.2 -5 1.2 -7.3Q1.2 -9.6 2 -11.3Q2.9 -12.9 4.3 -13.8Q5.8 -14.7 7.7 -14.7Q9.5 -14.7 11 -13.8Q12.4 -12.9 13.3 -11.3Q14.1 -9.6 14.1 -7.3Q14.1 -5 13.3 -3.3Q12.4 -1.6 11 -0.7Q9.5 0.2 7.7 0.2ZM7.7 -1.5Q9 -1.5 10 -2.2Q11.1 -2.8 11.7 -4.1Q12.3 -5.4 12.3 -7.3Q12.3 -9.1 11.7 -10.4Q11.1 -11.7 10 -12.4Q9 -13 7.7 -13Q6.3 -13 5.3 -12.4Q4.2 -11.7 3.6 -10.4Q3 -9.1 3 -7.3Q3 -5.4 3.6 -4.1Q4.2 -2.9 5.3 -2.2Q6.3 -1.5 7.7 -1.5Z"/><path id="g58" d="M4.7 0 0.5 -10.9H2.5L4.8 -4.4Q5.1 -3.4 5.4 -2.4Q5.7 -1.4 5.9 -0.5H5.3Q5.6 -1.4 5.8 -2.4Q6.1 -3.4 6.5 -4.4L8.8 -10.9H10.7L6.5 0H4.7Z"/><path id="g59" d="M1.5 0V-10.9H3.2V-9.2H3.4Q3.7 -10.1 4.4 -10.6Q5.2 -11.1 6.2 -11.1Q6.4 -11.1 6.7 -11.1Q6.9 -11.1 7.1 -11V-9.3Q7 -9.3 6.7 -9.3Q6.4 -9.4 6 -9.4Q5.2 -9.4 4.6 -9Q4 -8.7 3.7 -8.1Q3.3 -7.6 3.3 -6.8V0H1.5Z"/><path id="g60" d="M4.6 0.3Q3.6 0.3 2.7 -0.1Q1.9 -0.5 1.4 -1.3Q0.9 -2 0.9 -3.1Q0.9 -4 1.2 -4.6Q1.6 -5.2 2.2 -5.6Q2.9 -5.9 3.6 -6.1Q4.4 -6.2 5.1 -6.3Q6.1 -6.4 6.7 -6.5Q7.3 -6.6 7.6 -6.7Q7.9 -6.9 7.9 -7.3V-7.4Q7.9 -8.1 7.7 -8.5Q7.4 -9 6.9 -9.3Q6.4 -9.5 5.6 -9.5Q4.9 -9.5 4.3 -9.3Q3.8 -9 3.4 -8.7Q3.1 -8.3 2.9 -7.9L1.2 -8.5Q1.6 -9.5 2.3 -10Q3 -10.6 3.9 -10.8Q4.8 -11.1 5.6 -11.1Q6.1 -11.1 6.8 -10.9Q7.5 -10.8 8.2 -10.4Q8.8 -10 9.3 -9.2Q9.7 -8.5 9.7 -7.2V0H8V-1.5H7.8Q7.7 -1.1 7.2 -0.7Q6.8 -0.3 6.2 -0Q5.5 0.3 4.6 0.3ZM4.9 -1.3Q5.9 -1.3 6.6 -1.7Q7.2 -2.1 7.6 -2.7Q7.9 -3.3 7.9 -3.9V-5.5Q7.8 -5.3 7.5 -5.2Q7.1 -5.1 6.6 -5Q6.2 -5 5.7 -4.9Q5.3 -4.9 5 -4.8Q4.4 -4.8 3.9 -4.6Q3.3 -4.4 3 -4Q2.6 -3.6 2.6 -3Q2.6 -2.5 2.9 -2.1Q3.2 -1.7 3.7 -1.5Q4.2 -1.3 4.9 -1.3Z"/><path id="g61" d="M3.3 -14.6V0H1.5V-14.6H3.3Z"/><path id="g62" d="M6 0.2Q4.5 0.2 3.4 -0.5Q2.3 -1.2 1.6 -2.4Q1 -3.7 1 -5.4Q1 -7.1 1.6 -8.4Q2.3 -9.6 3.4 -10.4Q4.5 -11.1 6 -11.1Q6.8 -11.1 7.5 -10.8Q8.2 -10.6 8.8 -10.3Q9.3 -9.9 9.8 -9.3Q10.2 -8.8 10.4 -8L8.7 -7.6Q8.6 -8 8.4 -8.3Q8.1 -8.7 7.8 -8.9Q7.4 -9.2 7 -9.3Q6.5 -9.5 6 -9.5Q4.9 -9.5 4.2 -8.9Q3.5 -8.3 3.1 -7.4Q2.8 -6.5 2.8 -5.4Q2.8 -4.3 3.1 -3.4Q3.5 -2.5 4.2 -1.9Q4.9 -1.3 6 -1.3Q6.5 -1.3 7 -1.5Q7.5 -1.6 7.8 -1.9Q8.2 -2.2 8.4 -2.5Q8.7 -2.9 8.8 -3.3L10.4 -2.9Q10.2 -2.1 9.8 -1.6Q9.4 -1 8.8 -0.6Q8.2 -0.2 7.5 0Q6.8 0.2 6 0.2Z"/><path id="g63" d="M3.3 -6.5V0H1.5V-14.6H3.3V-8.3H3Q3.5 -9.8 4.4 -10.4Q5.3 -11.1 6.6 -11.1Q7.7 -11.1 8.5 -10.6Q9.4 -10.1 9.8 -9.2Q10.3 -8.3 10.3 -6.9V0H8.5V-6.8Q8.5 -8 7.9 -8.8Q7.2 -9.5 6.1 -9.5Q5.3 -9.5 4.6 -9.1Q4 -8.8 3.7 -8.1Q3.3 -7.5 3.3 -6.5Z"/><path id="g64" d="M1.2 3.5 2.1 -2H4.1L2.6 3.5H1.2Z"/><path id="g65" d="M1.5 0V-10.9H3.3V0H1.5ZM2.4 -12.7Q1.9 -12.7 1.6 -13Q1.2 -13.4 1.2 -13.9Q1.2 -14.4 1.6 -14.7Q1.9 -15 2.4 -15Q2.9 -15 3.3 -14.7Q3.7 -14.4 3.7 -13.9Q3.7 -13.4 3.3 -13Q2.9 -12.7 2.4 -12.7Z"/><path id="g66" d="M6 0.2Q4.5 0.2 3.4 -0.5Q2.3 -1.2 1.6 -2.4Q1 -3.7 1 -5.4Q1 -7.1 1.6 -8.4Q2.3 -9.6 3.4 -10.4Q4.5 -11.1 6 -11.1Q7.5 -11.1 8.6 -10.4Q9.7 -9.6 10.4 -8.4Q11 -7.1 11 -5.4Q11 -3.7 10.4 -2.4Q9.7 -1.2 8.6 -0.5Q7.5 0.2 6 0.2ZM6 -1.3Q7.1 -1.3 7.8 -1.9Q8.5 -2.5 8.9 -3.4Q9.2 -4.3 9.2 -5.4Q9.2 -6.5 8.9 -7.4Q8.5 -8.3 7.8 -8.9Q7.1 -9.5 6 -9.5Q4.9 -9.5 4.2 -8.9Q3.5 -8.3 3.1 -7.4Q2.8 -6.5 2.8 -5.4Q2.8 -4.3 3.1 -3.4Q3.5 -2.5 4.2 -1.9Q4.9 -1.3 6 -1.3Z"/><path id="g67" d="M3.3 -6.5V0H1.5V-10.9H3.2L3.2 -8.3H3Q3.5 -9.8 4.4 -10.4Q5.3 -11.1 6.6 -11.1Q7.7 -11.1 8.5 -10.6Q9.3 -10.1 9.8 -9.2Q10.3 -8.3 10.3 -6.9V0H8.5V-6.8Q8.5 -8 7.9 -8.8Q7.2 -9.5 6.1 -9.5Q5.3 -9.5 4.6 -9.1Q4 -8.8 3.7 -8.1Q3.3 -7.5 3.3 -6.5Z"/><path id="g68" d="M4 0 0.7 -10.9H2.5L3.9 -6.2Q4.2 -5.2 4.5 -3.9Q4.8 -2.7 5.1 -1.1H4.8Q5.1 -2.6 5.4 -3.9Q5.7 -5.1 6 -6.2L7.3 -10.9H9.1L10.4 -6.2Q10.7 -5.1 11 -3.9Q11.3 -2.7 11.6 -1.1H11.3Q11.6 -2.7 11.9 -3.9Q12.2 -5.1 12.5 -6.2L13.8 -10.9H15.7L12.4 0H10.6L9.2 -4.9Q9 -5.7 8.8 -6.5Q8.6 -7.3 8.4 -8.1Q8.2 -8.9 8 -9.7H8.4Q8.2 -8.9 8 -8.1Q7.8 -7.3 7.6 -6.5Q7.4 -5.7 7.2 -4.9L5.7 0H4Z"/><path id="g69" d="M5.6 0.2Q4.3 0.2 3.2 -0.5Q2.2 -1.2 1.6 -2.4Q1 -3.7 1 -5.4Q1 -7.2 1.6 -8.4Q2.2 -9.7 3.2 -10.4Q4.3 -11.1 5.6 -11.1Q6.7 -11.1 7.3 -10.7Q8 -10.4 8.3 -9.9Q8.6 -9.5 8.8 -9.2H8.9V-14.6H10.7V0H9V-1.7H8.8Q8.6 -1.4 8.3 -0.9Q7.9 -0.5 7.3 -0.1Q6.7 0.2 5.6 0.2ZM5.9 -1.3Q6.9 -1.3 7.6 -1.9Q8.3 -2.4 8.6 -3.3Q9 -4.2 9 -5.4Q9 -6.7 8.6 -7.6Q8.3 -8.5 7.6 -9Q6.9 -9.5 5.9 -9.5Q4.9 -9.5 4.2 -8.9Q3.5 -8.4 3.1 -7.5Q2.8 -6.6 2.8 -5.4Q2.8 -4.3 3.1 -3.4Q3.5 -2.4 4.2 -1.9Q4.9 -1.3 5.9 -1.3Z"/></defs><g clip-path="url(#clip1)"><rect width="640" height="227" fill="#06060a"/><ellipse cx="90" cy="40" rx="240" ry="120" fill="url(#rg2)"/><rect width="640" height="227" fill="url(#lg3)"/></g><rect x="0" y="0" width="640" height="227" rx="22" fill="url(#lg4)"/><path d="M22 0.8H618" stroke="url(#lg5)" stroke-width="1.2" fill="none"/><rect x="0.5" y="0.5" width="639" height="226" rx="21.5" fill="none" stroke="#fff" stroke-opacity=".11"/><g fill="#8a8a96"><use href="#g6" x="28" y="56"/><use href="#g7" x="41.3" y="56"/><use href="#g6" x="54.5" y="56"/><use href="#g8" x="67.8" y="56"/></g><rect x="449.9" y="31.8" width="162.1" height="36.4" rx="18.2" fill="#6fb39a" fill-opacity=".14" stroke="#6fb39a" stroke-opacity=".4"/><circle cx="472.3" cy="50" r="4.6499999999999995" fill="#8fe3c2"/><g fill="#8fe3c2"><use href="#g9" x="489.4" y="55.6"/><use href="#g10" x="500.6" y="55.6"/><use href="#g11" x="511.7" y="55.6"/><use href="#g12" x="522.9" y="55.6"/><use href="#g13" x="534" y="55.6"/><use href="#g14" x="545.2" y="55.6"/><use href="#g15" x="556.4" y="55.6"/><use href="#g16" x="567.5" y="55.6"/><use href="#g17" x="578.7" y="55.6"/></g><g fill="#f5f5f7"><use href="#g18" x="28" y="112"/><use href="#g19" x="45" y="112"/><use href="#g20" x="54.8" y="112"/><use href="#g21" x="61.1" y="112"/><use href="#g22" x="75.4" y="112"/><use href="#g23" x="90.3" y="112"/><use href="#g24" x="104.7" y="112"/><use href="#g25" x="119.1" y="112"/><use href="#g26" x="131.1" y="112"/><use href="#g19" x="147.3" y="112"/><use href="#g27" x="156.8" y="112"/><use href="#g28" x="172" y="112"/><use href="#g27" x="185.9" y="112"/><use href="#g19" x="201.1" y="112"/><use href="#g21" x="211.1" y="112"/><use href="#g20" x="226" y="112"/><use href="#g29" x="232.2" y="112"/><use href="#g30" x="247.9" y="112"/><use href="#g22" x="270.1" y="112"/><use href="#g31" x="285" y="112"/><use href="#g32" x="300.8" y="112"/><use href="#g33" x="310.1" y="112"/><use href="#g34" x="325.7" y="112"/><use href="#g22" x="349.8" y="112"/><use href="#g32" x="364.6" y="112"/><use href="#g27" x="373.9" y="112"/><use href="#g35" x="389.1" y="112"/><use href="#g36" x="411.3" y="112"/><use href="#g37" x="427.8" y="112"/><use href="#g38" x="446.1" y="112"/><use href="#g39" x="471.2" y="112"/><use href="#g20" x="493.3" y="112"/><use href="#g32" x="499.7" y="112"/><use href="#g40" x="509.2" y="112"/><use href="#g41" x="531" y="112"/><use href="#g33" x="537.3" y="112"/><use href="#g23" x="552.9" y="112"/><use href="#g22" x="568.1" y="112"/><use href="#g41" x="583" y="112"/></g><g fill="#f5f5f7"><use href="#g42" x="28" y="149"/><use href="#g42" x="43.1" y="149"/><use href="#g43" x="58.2" y="149"/><use href="#g28" x="82.6" y="149"/></g><g fill="#8a8a96"><use href="#g44" x="28" y="193"/><use href="#g45" x="43.1" y="193"/><use href="#g46" x="55.9" y="193"/><use href="#g45" x="68.8" y="193"/><use href="#g47" x="81.6" y="193"/><use href="#g48" x="87" y="193"/><use href="#g49" x="105.5" y="193"/><use href="#g50" x="117.7" y="193"/><use href="#g49" x="130.3" y="193"/><use href="#g51" x="142.5" y="193"/><use href="#g52" x="160.5" y="193"/><use href="#g53" x="171.9" y="193"/><use href="#g54" x="185" y="193"/><use href="#g55" x="196.7" y="193"/><use href="#g56" x="207.2" y="193"/><use href="#g57" x="219.4" y="193"/><use href="#g58" x="234.7" y="193"/><use href="#g54" x="245.5" y="193"/><use href="#g59" x="257.2" y="193"/><use href="#g60" x="264.7" y="193"/><use href="#g61" x="276" y="193"/><use href="#g61" x="280.8" y="193"/><use href="#g46" x="291.3" y="193"/><use href="#g54" x="303.9" y="193"/><use href="#g55" x="315.5" y="193"/><use href="#g54" x="326.1" y="193"/><use href="#g60" x="337.9" y="193"/><use href="#g59" x="349.2" y="193"/><use href="#g62" x="356.4" y="193"/><use href="#g63" x="367.8" y="193"/><use href="#g64" x="379.6" y="193"/><use href="#g55" x="391" y="193"/><use href="#g54" x="401.6" y="193"/><use href="#g55" x="413.2" y="193"/><use href="#g55" x="423.8" y="193"/><use href="#g65" x="434.3" y="193"/><use href="#g66" x="439.2" y="193"/><use href="#g67" x="451.2" y="193"/><use href="#g60" x="468.6" y="193"/><use href="#g68" x="479.8" y="193"/><use href="#g60" x="496.2" y="193"/><use href="#g59" x="507.4" y="193"/><use href="#g69" x="514.6" y="193"/></g><path d="M592 186H608M602 180.4L608 186L602 191.6" fill="none" stroke="#8a8a96" stroke-width="1.8" stroke-linecap="round" stroke-linejoin="round"/></svg>
