<svg xmlns="http://www.w3.org/2000/svg" width="640" height="476.4" viewBox="0 0 640 476.4" role="img"><title>3 systems: end to end, from data to deployment. NSRSIT 2026: Best Overall Research, session award. ICCMM 2026: accepted for an oral presentation. ICACT 2026: submitted to Track 3, Digital Health</title><style>.d1,.d2,.d3,.halo,.ring,.star{transform-box:fill-box;transform-origin:center}
.d1{animation:d1 27s ease-in-out infinite alternate}
.d2{animation:d2 31s ease-in-out infinite alternate}
.d3{animation:d3 24s ease-in-out infinite alternate}
@keyframes d1{to{transform:translate(90px,36px) scale(1.18)}}
@keyframes d2{to{transform:translate(-120px,28px) scale(.9)}}
@keyframes d3{to{transform:translate(70px,-48px) scale(1.14)}}
.halo{animation:halo 2s ease-out infinite}
@keyframes halo{from{transform:scale(1);opacity:.6}to{transform:scale(2.8);opacity:0}}
.bob{animation:bob 3.2s ease-in-out infinite}
@keyframes bob{50%{transform:translateY(-7px)}}
.spin{animation:spin 6s linear infinite}
@keyframes spin{to{transform:rotate(360deg)}}
.bounce{animation:bounce 1.3s ease-in-out infinite}
@keyframes bounce{50%{transform:translateY(-13px)}}
.ring{animation:ring 2.4s ease-out infinite}
@keyframes ring{from{transform:scale(.2);opacity:.9}to{transform:scale(1);opacity:0}}
.blink{animation:blink 1.8s ease-in-out infinite}
@keyframes blink{0%,100%{opacity:.16}50%{opacity:1}}
.bar{animation:bar 1.6s ease-in-out infinite;transform-box:fill-box;transform-origin:50% 100%}
@keyframes bar{0%,100%{transform:scaleY(.3)}50%{transform:scaleY(1)}}
.scan{animation:scan 2.6s ease-in-out infinite alternate}
@keyframes scan{from{transform:translateY(-24px)}to{transform:translateY(24px)}}
.hue{animation:hue 6s linear infinite}
@keyframes hue{0%,100%{fill:#8fe3c2}25%{fill:#6fd3e0}50%{fill:#7fb6ff}75%{fill:#ffb38a}}
.star{animation:star 2.8s ease-in-out infinite}
@keyframes star{0%,100%{transform:scale(.8);opacity:.7}50%{transform:scale(1.06);opacity:1}}
.flicker{animation:flicker 3.4s linear infinite}
@keyframes flicker{0%,40%,48%,56%,100%{opacity:1}44%{opacity:.3}52%{opacity:.55}}
.typing{animation:typing 1.2s ease-in-out infinite}
@keyframes typing{0%,60%,100%{opacity:.25;transform:none}
30%{opacity:1;transform:translateY(-3px)}}
@media (prefers-reduced-motion:reduce){*{animation:none!important}}</style><defs><clipPath id="clip1"><rect width="640" height="476.4" rx="30"/></clipPath><radialGradient id="rg2"><stop offset="0" stop-color="#27c485" stop-opacity="0.16"/><stop offset=".45" stop-color="#27c485" stop-opacity="0.072"/><stop offset="1" stop-color="#27c485" stop-opacity="0"/></radialGradient><radialGradient id="rg3"><stop offset="0" stop-color="#2f6bff" stop-opacity="0.18"/><stop offset=".45" stop-color="#2f6bff" stop-opacity="0.081"/><stop offset="1" stop-color="#2f6bff" stop-opacity="0"/></radialGradient><linearGradient id="lg4" x1="0" y1="0" x2="0" y2="1"><stop offset="0.5" stop-color="#06060a" stop-opacity="0"/><stop offset="1" stop-color="#06060a" stop-opacity="0.75"/></linearGradient><linearGradient id="lg5" x1="0.3" y1="0.1" x2="0.7" y2="0.9"><stop offset="0" stop-color="#fff" stop-opacity="0.08"/><stop offset="1" stop-color="#fff" stop-opacity="0.02"/></linearGradient><linearGradient id="lg6" x1="0" y1="0" x2="0" y2="1"><stop offset="0" stop-color="#fff" stop-opacity="0.08"/><stop offset="0.4" stop-color="#fff" stop-opacity="0"/></linearGradient><linearGradient id="lg7" x1="20" y1="0" x2="313" y2="0" gradientUnits="userSpaceOnUse"><stop offset="0" stop-color="#fff" stop-opacity="0"/><stop offset="0.5" stop-color="#fff" stop-opacity="0.24"/><stop offset="1" stop-color="#fff" stop-opacity="0"/></linearGradient><path id="g8" d="M1.2 -10.5H4.9Q6.3 -10.5 7.1 -9.7Q7.9 -9 7.9 -7.7Q7.9 -6.8 7.4 -6.3Q7 -5.7 6.2 -5.5V-5.4Q7.1 -5.2 7.7 -4.6Q8.2 -4 8.2 -3Q8.2 -2.3 8 -1.8Q7.8 -1.2 7.4 -0.8Q7 -0.4 6.5 -0.2Q5.9 0 5.3 0H1.2V-10.5ZM4.8 -1.3Q5.6 -1.3 6 -1.6Q6.5 -2 6.5 -2.7V-3.3Q6.5 -4 6 -4.4Q5.6 -4.7 4.8 -4.7H2.9V-1.3H4.8ZM4.5 -6Q5.3 -6 5.7 -6.3Q6.1 -6.6 6.1 -7.3V-7.8Q6.1 -8.6 5.7 -8.9Q5.3 -9.2 4.5 -9.2H2.9V-6H4.5Z"/><path id="g9" d="M2.7 -10.5V-4Q2.7 -3.4 2.8 -2.9Q2.8 -2.3 3 -2Q3.1 -1.6 3.5 -1.4Q3.9 -1.2 4.5 -1.2Q5.1 -1.2 5.5 -1.4Q5.8 -1.6 6 -2Q6.2 -2.3 6.2 -2.9Q6.3 -3.4 6.3 -4V-10.5H8V-4.3Q8 -3.2 7.8 -2.4Q7.7 -1.5 7.3 -1Q7 -0.4 6.3 -0.1Q5.6 0.2 4.5 0.2Q3.4 0.2 2.7 -0.1Q2 -0.4 1.7 -1Q1.3 -1.5 1.2 -2.4Q1 -3.2 1 -4.3V-10.5H2.7Z"/><path id="g10" d="M1.2 0V-1.3H3.7V-9.2H1.2V-10.5H7.8V-9.2H5.3V-1.3H7.8V0H1.2Z"/><path id="g11" d="M1.6 0V-10.5H3.3V-1.4H8.1V0H1.6Z"/><path id="g12" d="M5.3 -9.1V0H3.7V-9.1H0.4V-10.5H8.6V-9.1H5.3Z"/><linearGradient id="lg13" x1="44" y1="0" x2="231" y2="0" gradientUnits="userSpaceOnUse"><stop offset="0.0" stop-color="#8fe3c2" stop-opacity="1"/><stop offset="0.5" stop-color="#6fd3e0" stop-opacity="1"/><stop offset="1.0" stop-color="#7fb6ff" stop-opacity="1"/></linearGradient><path id="g14" d="M6.3 0.2Q4.6 0.2 3.5 -0.5Q2.3 -1.2 1.7 -2.5Q1 -3.8 1 -5.5Q1 -7.2 1.7 -8.5Q2.3 -9.8 3.4 -10.5Q4.5 -11.3 6 -11.3Q6.9 -11.3 7.8 -11Q8.7 -10.7 9.4 -10Q10.1 -9.4 10.5 -8.3Q10.9 -7.3 10.9 -5.7V-5H2.3V-6.5H9.9L9.1 -5.9Q9.1 -7 8.8 -7.9Q8.4 -8.7 7.7 -9.2Q7.1 -9.7 6 -9.7Q5 -9.7 4.3 -9.2Q3.6 -8.7 3.2 -7.9Q2.8 -7.1 2.8 -6.2V-5.2Q2.8 -4 3.3 -3.1Q3.7 -2.2 4.5 -1.8Q5.2 -1.4 6.3 -1.4Q6.9 -1.4 7.5 -1.5Q8 -1.7 8.4 -2.1Q8.8 -2.5 9 -3.1L10.7 -2.6Q10.5 -1.8 9.8 -1.1Q9.2 -0.5 8.3 -0.1Q7.4 0.2 6.3 0.2Z"/><path id="g15" d="M3.4 -6.7V0H1.6V-11.1H3.3L3.3 -8.4H3.1Q3.6 -10 4.5 -10.6Q5.4 -11.3 6.7 -11.3Q7.8 -11.3 8.7 -10.8Q9.5 -10.3 10 -9.4Q10.5 -8.5 10.5 -7.1V0H8.7V-6.9Q8.7 -8.2 8 -8.9Q7.3 -9.7 6.2 -9.7Q5.4 -9.7 4.7 -9.3Q4.1 -9 3.7 -8.3Q3.4 -7.6 3.4 -6.7Z"/><path id="g16" d="M5.7 0.2Q4.4 0.2 3.3 -0.5Q2.2 -1.2 1.6 -2.5Q1 -3.8 1 -5.5Q1 -7.3 1.6 -8.6Q2.2 -9.9 3.3 -10.6Q4.4 -11.3 5.8 -11.3Q6.8 -11.3 7.5 -10.9Q8.1 -10.6 8.5 -10.1Q8.8 -9.7 9 -9.4H9.1V-14.8H10.9V0H9.2V-1.7H9Q8.8 -1.4 8.5 -1Q8.1 -0.5 7.5 -0.1Q6.8 0.2 5.7 0.2ZM6 -1.4Q7 -1.4 7.7 -1.9Q8.4 -2.4 8.8 -3.4Q9.1 -4.3 9.1 -5.6Q9.1 -6.8 8.8 -7.7Q8.4 -8.6 7.7 -9.2Q7 -9.7 6 -9.7Q5 -9.7 4.3 -9.1Q3.6 -8.6 3.2 -7.6Q2.9 -6.7 2.9 -5.6Q2.9 -4.4 3.2 -3.4Q3.6 -2.5 4.3 -1.9Q5 -1.4 6 -1.4Z"/><path id="g17" d="M6 -11.1V-9.6H0.2V-11.1H6ZM1.9 -13.8H3.7V-2.9Q3.7 -2.1 4 -1.8Q4.3 -1.5 5 -1.5Q5.1 -1.5 5.4 -1.5Q5.7 -1.5 5.9 -1.6L6.3 -0.1Q6 0 5.6 0.1Q5.3 0.1 4.9 0.1Q3.5 0.1 2.7 -0.6Q1.9 -1.4 1.9 -2.7V-13.8Z"/><path id="g18" d="M6.1 0.2Q4.6 0.2 3.5 -0.5Q2.3 -1.2 1.7 -2.5Q1 -3.8 1 -5.5Q1 -7.2 1.7 -8.5Q2.3 -9.8 3.5 -10.6Q4.6 -11.3 6.1 -11.3Q7.6 -11.3 8.8 -10.6Q9.9 -9.8 10.6 -8.5Q11.2 -7.2 11.2 -5.5Q11.2 -3.8 10.6 -2.5Q9.9 -1.2 8.8 -0.5Q7.6 0.2 6.1 0.2ZM6.1 -1.4Q7.2 -1.4 8 -1.9Q8.7 -2.5 9 -3.5Q9.4 -4.4 9.4 -5.5Q9.4 -6.6 9 -7.6Q8.7 -8.5 8 -9.1Q7.2 -9.7 6.1 -9.7Q5 -9.7 4.3 -9.1Q3.6 -8.5 3.2 -7.6Q2.9 -6.6 2.9 -5.5Q2.9 -4.4 3.2 -3.5Q3.6 -2.5 4.3 -1.9Q5 -1.4 6.1 -1.4Z"/><path id="g19" d="M1.3 3.6 2.2 -2.1H4.2L2.6 3.6H1.3Z"/><path id="g20" d="M6.8 -11.1V-9.6H0.2V-11.1H6.8ZM2.4 0V-12.6Q2.4 -13.6 2.8 -14.2Q3.3 -14.9 4 -15.2Q4.8 -15.5 5.6 -15.5Q6.2 -15.5 6.6 -15.4Q7 -15.3 7.2 -15.2L6.7 -13.7Q6.6 -13.8 6.4 -13.8Q6.1 -13.9 5.8 -13.9Q4.9 -13.9 4.6 -13.5Q4.2 -13 4.2 -12.2V0H2.4Z"/><path id="g21" d="M1.6 0V-11.1H3.3V-9.4H3.4Q3.7 -10.3 4.5 -10.8Q5.3 -11.3 6.3 -11.3Q6.5 -11.3 6.8 -11.3Q7.1 -11.3 7.2 -11.3V-9.5Q7.1 -9.5 6.8 -9.5Q6.5 -9.6 6.1 -9.6Q5.3 -9.6 4.7 -9.2Q4.1 -8.9 3.7 -8.3Q3.4 -7.7 3.4 -7V0H1.6Z"/><path id="g22" d="M1.6 0V-11.1H3.3L3.3 -8.6H3.2Q3.4 -9.6 3.9 -10.1Q4.4 -10.7 5.1 -11Q5.7 -11.3 6.4 -11.3Q7.7 -11.3 8.4 -10.6Q9.2 -9.8 9.4 -8.6H9.1Q9.3 -9.5 9.9 -10.1Q10.4 -10.7 11.2 -11Q11.9 -11.3 12.8 -11.3Q13.8 -11.3 14.6 -10.9Q15.3 -10.5 15.8 -9.7Q16.3 -8.8 16.3 -7.5V0H14.5V-7.5Q14.5 -8.7 13.8 -9.2Q13.1 -9.7 12.3 -9.7Q11.5 -9.7 11 -9.4Q10.4 -9.1 10.1 -8.5Q9.8 -8 9.8 -7.3V0H8V-7.6Q8 -8.6 7.4 -9.1Q6.8 -9.7 5.9 -9.7Q5.2 -9.7 4.6 -9.4Q4.1 -9.1 3.7 -8.5Q3.4 -7.9 3.4 -7V0H1.6Z"/><path id="g23" d="M4.7 0.3Q3.6 0.3 2.8 -0.1Q1.9 -0.5 1.4 -1.3Q0.9 -2.1 0.9 -3.2Q0.9 -4.1 1.3 -4.7Q1.7 -5.3 2.3 -5.7Q2.9 -6 3.7 -6.2Q4.5 -6.3 5.2 -6.4Q6.2 -6.6 6.9 -6.6Q7.5 -6.7 7.8 -6.9Q8.1 -7.1 8.1 -7.5V-7.5Q8.1 -8.2 7.8 -8.7Q7.6 -9.2 7.1 -9.4Q6.5 -9.7 5.8 -9.7Q5 -9.7 4.4 -9.5Q3.8 -9.2 3.5 -8.8Q3.1 -8.5 2.9 -8.1L1.2 -8.6Q1.6 -9.7 2.4 -10.2Q3.1 -10.8 4 -11Q4.9 -11.3 5.7 -11.3Q6.3 -11.3 7 -11.1Q7.7 -11 8.4 -10.6Q9 -10.2 9.4 -9.4Q9.9 -8.6 9.9 -7.3V0H8.1V-1.5H8Q7.8 -1.1 7.4 -0.7Q7 -0.3 6.3 -0Q5.6 0.3 4.7 0.3ZM5 -1.3Q6 -1.3 6.7 -1.7Q7.4 -2.1 7.7 -2.7Q8.1 -3.3 8.1 -4V-5.6Q8 -5.4 7.6 -5.3Q7.2 -5.2 6.8 -5.1Q6.3 -5.1 5.9 -5Q5.4 -5 5.1 -4.9Q4.5 -4.9 3.9 -4.7Q3.4 -4.5 3 -4.1Q2.7 -3.7 2.7 -3.1Q2.7 -2.5 3 -2.1Q3.3 -1.7 3.8 -1.5Q4.3 -1.3 5 -1.3Z"/><path id="g24" d="M1.6 4.2V-11.1H3.3V-9.4H3.5Q3.7 -9.7 4 -10.1Q4.4 -10.6 5 -10.9Q5.6 -11.3 6.7 -11.3Q8.1 -11.3 9.2 -10.6Q10.2 -9.9 10.9 -8.6Q11.5 -7.3 11.5 -5.5Q11.5 -3.8 10.9 -2.5Q10.3 -1.2 9.2 -0.5Q8.1 0.2 6.7 0.2Q5.7 0.2 5 -0.1Q4.4 -0.5 4 -1Q3.7 -1.4 3.5 -1.7H3.4V4.2H1.6ZM6.5 -1.4Q7.5 -1.4 8.2 -1.9Q8.9 -2.5 9.3 -3.4Q9.6 -4.4 9.6 -5.6Q9.6 -6.7 9.3 -7.6Q8.9 -8.6 8.2 -9.1Q7.5 -9.7 6.5 -9.7Q5.4 -9.7 4.8 -9.2Q4.1 -8.6 3.7 -7.7Q3.3 -6.8 3.3 -5.6Q3.3 -4.3 3.7 -3.4Q4.1 -2.4 4.8 -1.9Q5.5 -1.4 6.5 -1.4Z"/><path id="g25" d="M3.4 -14.8V0H1.6V-14.8H3.4Z"/><path id="g26" d="M1.4 4 1.9 2.5 2 2.5Q2.6 2.7 3 2.6Q3.5 2.5 3.8 2.2Q4.2 1.8 4.5 1L4.8 0.1L0.5 -11.1H2.5L4.9 -4.5Q5.2 -3.5 5.5 -2.5Q5.8 -1.5 6.1 -0.5H5.4Q5.7 -1.5 6 -2.5Q6.2 -3.5 6.6 -4.5L9 -11.1H10.9L6 1.7Q5.7 2.5 5.2 3.1Q4.8 3.7 4.1 4Q3.5 4.2 2.7 4.2Q2.2 4.2 1.9 4.2Q1.5 4.1 1.4 4Z"/><linearGradient id="lg27" x1="327" y1="0" x2="620" y2="0" gradientUnits="userSpaceOnUse"><stop offset="0" stop-color="#fff" stop-opacity="0"/><stop offset="0.5" stop-color="#fff" stop-opacity="0.24"/><stop offset="1" stop-color="#fff" stop-opacity="0"/></linearGradient><path id="g28" d="M6.9 0 6.1 -2.8H2.8L2 0H0.3L3.4 -10.5H5.7L8.7 0H6.9ZM4.5 -8.8H4.4L3.1 -4.2H5.8L4.5 -8.8Z"/><path id="g29" d="M1.1 0 0.4 -10.5H1.8L2.2 -4.4L2.4 -1.7H2.5L3.7 -7.9H5.4L6.5 -1.7H6.7L6.8 -4.4L7.2 -10.5H8.6L7.9 0H5.6L4.6 -6.1H4.4L3.4 0H1.1Z"/><path id="g30" d="M2.9 0H1.3V-10.5H5.2Q6.7 -10.5 7.5 -9.6Q8.2 -8.8 8.2 -7.3Q8.2 -6.1 7.7 -5.3Q7.1 -4.6 6 -4.4L8.4 0H6.5L4.3 -4.2H2.9V0ZM4.9 -5.6Q6.5 -5.6 6.5 -7V-7.6Q6.5 -9.1 4.9 -9.1H2.9V-5.6H4.9Z"/><path id="g31" d="M1.2 -10.5H4.3Q6.4 -10.5 7.3 -9.1Q8.3 -7.8 8.3 -5.2Q8.3 -2.7 7.3 -1.3Q6.4 0 4.3 0H1.2V-10.5ZM4.2 -1.4Q5.4 -1.4 6 -2.2Q6.5 -2.9 6.5 -4.4V-6.1Q6.5 -7.5 6 -8.3Q5.4 -9.1 4.2 -9.1H2.9V-1.4H4.2Z"/><linearGradient id="lg32" x1="351" y1="0" x2="595" y2="0" gradientUnits="userSpaceOnUse"><stop offset="0.0" stop-color="#8fe3c2" stop-opacity="1"/><stop offset="0.5" stop-color="#6fd3e0" stop-opacity="1"/><stop offset="1.0" stop-color="#7fb6ff" stop-opacity="1"/></linearGradient><path id="g33" d="M1.8 0V-14.8H7.1Q8.6 -14.8 9.6 -14.3Q10.6 -13.8 11.1 -12.9Q11.6 -12 11.6 -10.9Q11.6 -10 11.3 -9.3Q10.9 -8.7 10.4 -8.3Q9.8 -8 9.2 -7.8V-7.6Q9.9 -7.6 10.6 -7.2Q11.3 -6.7 11.7 -5.9Q12.2 -5.1 12.2 -4Q12.2 -2.8 11.7 -1.9Q11.2 -1 10.1 -0.5Q9 0 7.2 0H1.8ZM3.7 -1.7H7.2Q8.9 -1.7 9.6 -2.3Q10.4 -3 10.4 -4Q10.4 -4.7 10 -5.3Q9.6 -6 8.9 -6.4Q8.2 -6.7 7.3 -6.7H3.7V-1.7ZM3.7 -8.3H7Q7.7 -8.3 8.4 -8.6Q9 -9 9.4 -9.5Q9.8 -10.1 9.8 -10.9Q9.8 -11.8 9.1 -12.5Q8.5 -13.2 7 -13.2H3.7V-8.3Z"/><path id="g34" d="M5.4 0.2Q4.2 0.2 3.3 -0.1Q2.4 -0.4 1.9 -1.1Q1.3 -1.7 1.1 -2.7L2.8 -3.1Q3 -2.2 3.7 -1.8Q4.3 -1.3 5.3 -1.3Q6.5 -1.3 7.2 -1.8Q7.9 -2.3 7.9 -3Q7.9 -3.6 7.5 -4Q7.1 -4.4 6.3 -4.6L4.4 -5Q2.9 -5.3 2.2 -6.1Q1.4 -6.9 1.4 -8Q1.4 -9 2 -9.7Q2.5 -10.4 3.4 -10.9Q4.4 -11.3 5.5 -11.3Q6.7 -11.3 7.5 -10.9Q8.3 -10.6 8.8 -10Q9.3 -9.4 9.5 -8.6L7.9 -8.2Q7.7 -8.8 7.2 -9.3Q6.6 -9.8 5.5 -9.8Q4.6 -9.8 3.9 -9.3Q3.2 -8.8 3.2 -8.1Q3.2 -7.5 3.7 -7.1Q4.1 -6.8 5.1 -6.5L6.8 -6.1Q8.3 -5.8 9 -5Q9.8 -4.3 9.8 -3.1Q9.8 -2.2 9.2 -1.4Q8.6 -0.6 7.7 -0.2Q6.7 0.2 5.4 0.2Z"/><path id="g35" d="M7.8 0.2Q5.9 0.2 4.4 -0.7Q2.9 -1.6 2.1 -3.4Q1.2 -5.1 1.2 -7.4Q1.2 -9.8 2.1 -11.5Q2.9 -13.2 4.4 -14.1Q5.9 -15 7.8 -15Q9.7 -15 11.2 -14.1Q12.7 -13.2 13.5 -11.5Q14.4 -9.8 14.4 -7.4Q14.4 -5.1 13.5 -3.4Q12.7 -1.6 11.2 -0.7Q9.7 0.2 7.8 0.2ZM7.8 -1.6Q9.1 -1.6 10.2 -2.2Q11.3 -2.9 11.9 -4.2Q12.5 -5.5 12.5 -7.4Q12.5 -9.3 11.9 -10.6Q11.3 -11.9 10.2 -12.6Q9.1 -13.3 7.8 -13.3Q6.5 -13.3 5.4 -12.6Q4.3 -11.9 3.7 -10.6Q3.1 -9.3 3.1 -7.4Q3.1 -5.5 3.7 -4.2Q4.3 -2.9 5.4 -2.2Q6.5 -1.6 7.8 -1.6Z"/><path id="g36" d="M4.8 0 0.5 -11.1H2.5L4.9 -4.5Q5.2 -3.5 5.5 -2.5Q5.8 -1.5 6.1 -0.5H5.4Q5.7 -1.5 6 -2.5Q6.2 -3.5 6.6 -4.5L9 -11.1H10.9L6.7 0H4.8Z"/><path id="g37" d="M1.8 0V-14.8H6.9Q8.6 -14.8 9.7 -14.2Q10.8 -13.7 11.4 -12.6Q11.9 -11.6 11.9 -10.3Q11.9 -8.9 11.4 -7.9Q10.8 -6.9 9.7 -6.3Q8.6 -5.8 6.9 -5.8H2.8V-7.4H6.8Q8 -7.4 8.7 -7.8Q9.4 -8.1 9.7 -8.8Q10.1 -9.4 10.1 -10.3Q10.1 -11.1 9.7 -11.8Q9.4 -12.5 8.7 -12.8Q8 -13.2 6.8 -13.2H3.7V0H1.8ZM10.3 0 6.7 -6.7H8.9L12.5 0H10.3Z"/><path id="g38" d="M6.1 0.2Q4.6 0.2 3.5 -0.5Q2.3 -1.2 1.7 -2.5Q1 -3.8 1 -5.5Q1 -7.2 1.7 -8.5Q2.3 -9.8 3.5 -10.6Q4.6 -11.3 6.1 -11.3Q6.9 -11.3 7.6 -11.1Q8.3 -10.9 8.9 -10.5Q9.5 -10.1 10 -9.5Q10.4 -8.9 10.6 -8.2L8.9 -7.7Q8.8 -8.1 8.5 -8.5Q8.3 -8.9 7.9 -9.1Q7.6 -9.4 7.1 -9.5Q6.7 -9.7 6.1 -9.7Q5 -9.7 4.3 -9.1Q3.6 -8.5 3.2 -7.6Q2.9 -6.6 2.9 -5.5Q2.9 -4.4 3.2 -3.5Q3.6 -2.5 4.3 -1.9Q5 -1.4 6.1 -1.4Q6.7 -1.4 7.1 -1.5Q7.6 -1.7 8 -1.9Q8.3 -2.2 8.6 -2.6Q8.8 -3 8.9 -3.4L10.7 -2.9Q10.4 -2.2 10 -1.6Q9.6 -1 9 -0.6Q8.4 -0.2 7.6 0Q6.9 0.2 6.1 0.2Z"/><path id="g39" d="M3.4 -6.7V0H1.6V-14.8H3.4V-8.4H3.1Q3.6 -10 4.5 -10.6Q5.4 -11.3 6.7 -11.3Q7.8 -11.3 8.7 -10.8Q9.5 -10.3 10 -9.4Q10.5 -8.5 10.5 -7.1V0H8.7V-6.9Q8.7 -8.2 8 -8.9Q7.3 -9.7 6.2 -9.7Q5.4 -9.7 4.7 -9.3Q4.1 -9 3.7 -8.3Q3.4 -7.6 3.4 -6.7Z"/><path id="g40" d="M1.6 0V-11.1H3.4V0H1.6ZM2.5 -13Q2 -13 1.6 -13.3Q1.2 -13.7 1.2 -14.1Q1.2 -14.6 1.6 -15Q2 -15.3 2.5 -15.3Q3 -15.3 3.4 -15Q3.7 -14.6 3.7 -14.1Q3.7 -13.7 3.4 -13.3Q3 -13 2.5 -13Z"/><path id="g41" d="M4.1 0 0.7 -11.1H2.6L4 -6.3Q4.2 -5.3 4.6 -4Q4.9 -2.8 5.2 -1.2H4.9Q5.2 -2.7 5.5 -4Q5.8 -5.2 6.1 -6.3L7.4 -11.1H9.3L10.6 -6.3Q10.9 -5.2 11.2 -4Q11.5 -2.7 11.8 -1.2H11.5Q11.8 -2.7 12.1 -4Q12.5 -5.2 12.7 -6.3L14.1 -11.1H16L12.6 0H10.8L9.4 -5Q9.2 -5.8 9 -6.6Q8.8 -7.4 8.6 -8.2Q8.4 -9.1 8.1 -9.9H8.5Q8.3 -9.1 8.1 -8.2Q7.9 -7.4 7.7 -6.6Q7.5 -5.8 7.3 -5L5.9 0H4.1Z"/><path id="g42" d="M4.1 -4.8 2.9 -3.2V0H1.2V-10.5H2.9V-5.5H2.9L4.2 -7.2L6.8 -10.5H8.7L5.2 -6.1L8.8 0H6.9L4.1 -4.8Z"/><linearGradient id="lg43" x1="44" y1="0" x2="288.7" y2="0" gradientUnits="userSpaceOnUse"><stop offset="0.0" stop-color="#8fe3c2" stop-opacity="1"/><stop offset="0.5" stop-color="#6fd3e0" stop-opacity="1"/><stop offset="1.0" stop-color="#7fb6ff" stop-opacity="1"/></linearGradient><path id="g44" d="M1.3 0V-10.5H5.2Q6.7 -10.5 7.5 -9.6Q8.2 -8.8 8.2 -7.3Q8.2 -5.8 7.5 -5Q6.7 -4.2 5.2 -4.2H2.9V0H1.3ZM2.9 -5.6H4.9Q6.5 -5.6 6.5 -7V-7.6Q6.5 -9.1 4.9 -9.1H2.9V-5.6Z"/><path id="g45" d="M1.3 0V-10.5H7.8V-9.1H3V-6H7.7V-4.6H3V-1.4H7.8V0H1.3Z"/><linearGradient id="lg46" x1="351" y1="0" x2="575.1" y2="0" gradientUnits="userSpaceOnUse"><stop offset="0.0" stop-color="#8fe3c2" stop-opacity="1"/><stop offset="0.5" stop-color="#6fd3e0" stop-opacity="1"/><stop offset="1.0" stop-color="#7fb6ff" stop-opacity="1"/></linearGradient><path id="g47" d="M5.3 0.1Q4.2 0.1 3.4 -0.3Q2.5 -0.8 2 -1.7Q1.6 -2.7 1.6 -4.1V-11.1H3.4V-4.2Q3.4 -2.9 4 -2.2Q4.7 -1.5 5.9 -1.5Q6.7 -1.5 7.3 -1.8Q7.9 -2.2 8.3 -2.8Q8.7 -3.5 8.7 -4.5V-11.1H10.5V0H8.8V-2.7H9Q8.5 -1.1 7.5 -0.5Q6.6 0.1 5.3 0.1Z"/><path id="g48" d="M6.7 0.2Q5.7 0.2 5 -0.1Q4.4 -0.5 4 -1Q3.7 -1.4 3.5 -1.7H3.3V0H1.6V-14.8H3.4V-9.4H3.5Q3.7 -9.7 4 -10.1Q4.4 -10.6 5 -10.9Q5.6 -11.3 6.7 -11.3Q8.1 -11.3 9.2 -10.6Q10.2 -9.9 10.9 -8.6Q11.5 -7.3 11.5 -5.5Q11.5 -3.8 10.9 -2.5Q10.3 -1.2 9.2 -0.5Q8.1 0.2 6.7 0.2ZM6.5 -1.4Q7.5 -1.4 8.2 -1.9Q8.9 -2.5 9.3 -3.4Q9.6 -4.4 9.6 -5.6Q9.6 -6.7 9.3 -7.6Q8.9 -8.6 8.2 -9.1Q7.5 -9.7 6.5 -9.7Q5.4 -9.7 4.8 -9.2Q4.1 -8.6 3.7 -7.7Q3.3 -6.8 3.3 -5.6Q3.3 -4.3 3.7 -3.4Q4.1 -2.4 4.8 -1.9Q5.5 -1.4 6.5 -1.4Z"/><path id="g49" d="M1 -13.2V-14.8H12.2V-13.2H7.5V0H5.6V-13.2H1Z"/><path id="g50" d="M3.3 -4V-6.2H3.6L8.3 -11.1H10.6L5.4 -5.8H5.2L3.3 -4ZM1.6 0V-14.8H3.4V0H1.6ZM8.6 0 4.4 -5.4 5.6 -6.7 10.9 0H8.6Z"/><path id="g51" d="M6.3 0.2Q4.9 0.2 3.7 -0.3Q2.6 -0.8 2 -1.7Q1.3 -2.6 1.2 -3.7H3.2Q3.2 -3 3.6 -2.5Q4.1 -2 4.8 -1.7Q5.4 -1.5 6.3 -1.5Q7.2 -1.5 8 -1.8Q8.7 -2.1 9.1 -2.7Q9.5 -3.3 9.5 -4.1Q9.5 -4.9 9.1 -5.5Q8.7 -6.1 7.9 -6.4Q7.2 -6.8 6.1 -6.8H4.9V-8.4H6.1Q6.9 -8.4 7.6 -8.7Q8.3 -9.1 8.6 -9.6Q9 -10.2 9 -11Q9 -11.7 8.7 -12.2Q8.3 -12.8 7.7 -13.1Q7.2 -13.4 6.3 -13.4Q5.6 -13.4 4.9 -13.1Q4.3 -12.8 3.8 -12.3Q3.4 -11.8 3.4 -11.1H1.6Q1.6 -12.3 2.3 -13.2Q2.9 -14 4 -14.5Q5.1 -15 6.4 -15Q7.8 -15 8.8 -14.5Q9.8 -13.9 10.3 -13Q10.8 -12.1 10.8 -11.1Q10.8 -9.8 10.2 -8.9Q9.5 -8 8.4 -7.7V-7.6Q9.3 -7.4 10 -7Q10.7 -6.5 11 -5.7Q11.4 -5 11.4 -4Q11.4 -2.8 10.7 -1.9Q10.1 -0.9 8.9 -0.4Q7.8 0.2 6.3 0.2Z"/><path id="g52" d="M6.4 0H2.8V-1.7H6.3Q8.1 -1.7 9.3 -2.4Q10.5 -3.1 11.1 -4.4Q11.7 -5.6 11.7 -7.5Q11.7 -9.2 11.1 -10.5Q10.5 -11.8 9.4 -12.5Q8.2 -13.2 6.5 -13.2H2.8V-14.8H6.6Q8.8 -14.8 10.3 -14Q11.9 -13.1 12.7 -11.4Q13.5 -9.8 13.5 -7.5Q13.5 -5.1 12.7 -3.5Q11.9 -1.8 10.3 -0.9Q8.7 0 6.4 0ZM3.7 -14.8V0H1.8V-14.8H3.7Z"/><path id="g53" d="M6.1 4.4Q4.9 4.4 3.9 4.1Q3 3.8 2.5 3.3Q1.9 2.7 1.5 2.1L3 1.2Q3.2 1.5 3.6 1.9Q3.9 2.3 4.5 2.6Q5.1 2.8 6.1 2.8Q7.4 2.8 8.3 2.2Q9.1 1.6 9.1 0.2V-2H9Q8.8 -1.7 8.4 -1.3Q8.1 -0.8 7.5 -0.5Q6.8 -0.2 5.7 -0.2Q4.4 -0.2 3.3 -0.8Q2.3 -1.4 1.7 -2.7Q1 -3.9 1 -5.6Q1 -7.3 1.6 -8.6Q2.3 -9.9 3.3 -10.6Q4.4 -11.3 5.8 -11.3Q6.9 -11.3 7.5 -10.9Q8.1 -10.6 8.5 -10.1Q8.8 -9.7 9 -9.4H9.2V-11.1H10.9V0.3Q10.9 1.7 10.3 2.6Q9.6 3.5 8.5 4Q7.4 4.4 6.1 4.4ZM6 -1.8Q7.1 -1.8 7.7 -2.2Q8.4 -2.7 8.8 -3.6Q9.2 -4.4 9.2 -5.7Q9.2 -6.8 8.8 -7.7Q8.5 -8.6 7.8 -9.2Q7.1 -9.7 6 -9.7Q5 -9.7 4.3 -9.1Q3.6 -8.6 3.2 -7.7Q2.9 -6.8 2.9 -5.7Q2.9 -4.5 3.2 -3.6Q3.6 -2.8 4.3 -2.3Q5 -1.8 6 -1.8Z"/><path id="g54" d="M1.8 0V-14.8H3.7V-8.4H11.5V-14.8H13.4V0H11.5V-6.8H3.7V0H1.8Z"/></defs><g clip-path="url(#clip1)"><rect width="640" height="476.4" fill="#06060a"/><ellipse cx="128.0" cy="142.92" rx="224.0" ry="428.76" fill="url(#rg2)"/><ellipse cx="544.0" cy="333.47999999999996" rx="224.0" ry="428.76" fill="url(#rg3)"/><rect width="640" height="476.4" fill="url(#lg4)"/></g><rect x="20.0" y="20.0" width="293.0" height="211.2" rx="22" fill="url(#lg5)"/><rect x="20.0" y="20.0" width="293.0" height="211.2" rx="22" fill="url(#lg6)"/><path d="M42 20.8H291" stroke="url(#lg7)" stroke-width="1.2" fill="none"/><rect x="20.5" y="20.5" width="292" height="210.2" rx="21.5" fill="none" stroke="#fff" stroke-opacity=".11"/><g fill="#8a8a96"><use href="#g8" x="44" y="65.6"/><use href="#g9" x="55.7" y="65.6"/><use href="#g10" x="67.4" y="65.6"/><use href="#g11" x="79.1" y="65.6"/><use href="#g12" x="90.8" y="65.6"/></g><path fill="url(#lg13)" d="M56.7 126.1Q53 126.1 50.5 124.7Q48 123.3 46.7 121Q45.4 118.6 45.4 115.8H51.3Q51.3 117.5 51.9 118.8Q52.6 120 53.8 120.6Q55 121.3 56.7 121.3Q58.2 121.3 59.4 120.7Q60.6 120.2 61.3 119.2Q62 118.2 62 116.9Q62 115.6 61.3 114.7Q60.5 113.8 59.2 113.2Q57.9 112.7 56.2 112.7H53.5V108.2H56.2Q57.8 108.2 58.9 107.8Q60.1 107.3 60.8 106.4Q61.4 105.5 61.4 104.4Q61.4 103.1 60.8 102.1Q60.2 101.2 59.1 100.6Q58.1 100.1 56.7 100.1Q55.2 100.1 54.1 100.7Q53 101.3 52.4 102.3Q51.8 103.4 51.8 104.8H46Q46 102.1 47.3 100Q48.6 97.9 51 96.7Q53.4 95.4 56.7 95.4Q59.7 95.4 62.1 96.5Q64.4 97.6 65.8 99.4Q67.1 101.3 67.1 103.7Q67.1 106.2 65.5 107.9Q64 109.6 61.5 110.1V110.2Q63.5 110.5 65 111.5Q66.5 112.5 67.2 114Q68 115.5 68 117.2Q68 119.8 66.6 121.8Q65.1 123.8 62.6 124.9Q60 126.1 56.7 126.1ZM87.2 126.1Q84.5 126.1 82.4 125.3Q80.2 124.4 78.9 122.8Q77.7 121.2 77.5 119H83.3Q83.4 120.4 84.4 121.1Q85.4 121.9 87.1 121.9Q88.7 121.9 89.7 121.3Q90.6 120.7 90.6 119.7Q90.6 118.9 89.9 118.4Q89.2 117.8 87.9 117.6L84.2 116.9Q81.1 116.3 79.5 114.7Q78 113.2 78 110.7Q78 108.8 79 107.3Q80.1 105.8 82.1 104.9Q84.1 104.1 86.9 104.1Q89.6 104.1 91.6 105Q93.7 105.9 94.8 107.4Q96 109 96 111.2H90.6Q90.6 110 89.6 109.1Q88.6 108.3 87 108.3Q85.5 108.3 84.7 108.9Q83.8 109.6 83.8 110.5Q83.8 111.3 84.5 111.9Q85.2 112.4 86.4 112.6L90.3 113.4Q93.5 114 95 115.4Q96.5 116.8 96.5 119.2Q96.5 121.3 95.4 122.8Q94.2 124.4 92.1 125.2Q90 126.1 87.2 126.1ZM98.9 133.9V129.3H101.6Q102.3 129.3 102.7 129.1Q103.2 128.8 103.5 128.4Q103.8 127.9 104 127.1L104.6 125.5L96.5 104.6H102.7L106.2 115Q106.8 116.8 107.4 118.7Q107.9 120.5 108.5 122.4H106.8Q107.3 120.5 107.9 118.7Q108.4 116.8 109 115L112.6 104.6H118.7L109.4 128.8Q108.7 130.6 107.8 131.7Q106.9 132.8 105.7 133.4Q104.4 133.9 102.8 133.9Q101.8 133.9 100.8 133.9Q99.8 133.9 98.9 133.9ZM128.5 126.1Q125.8 126.1 123.6 125.3Q121.5 124.4 120.2 122.8Q118.9 121.2 118.8 119H124.5Q124.7 120.4 125.7 121.1Q126.7 121.9 128.4 121.9Q130 121.9 131 121.3Q131.9 120.7 131.9 119.7Q131.9 118.9 131.2 118.4Q130.5 117.8 129.2 117.6L125.5 116.9Q122.4 116.3 120.8 114.7Q119.2 113.2 119.2 110.7Q119.2 108.8 120.3 107.3Q121.4 105.8 123.4 104.9Q125.4 104.1 128.1 104.1Q130.9 104.1 132.9 105Q134.9 105.9 136.1 107.4Q137.2 109 137.3 111.2H131.9Q131.8 110 130.9 109.1Q129.9 108.3 128.3 108.3Q126.8 108.3 125.9 108.9Q125.1 109.6 125.1 110.5Q125.1 111.3 125.8 111.9Q126.4 112.4 127.6 112.6L131.6 113.4Q134.8 114 136.3 115.4Q137.8 116.8 137.8 119.2Q137.8 121.3 136.6 122.8Q135.5 124.4 133.3 125.2Q131.2 126.1 128.5 126.1ZM152.6 104.6V109.2H138.8V104.6H152.6ZM142.5 98.8H148.3V119.1Q148.3 120.2 148.8 120.6Q149.2 121 150.4 121Q150.9 121 151.6 121Q152.3 121 152.6 121V125.6Q152.1 125.6 151.1 125.6Q150.2 125.6 149.2 125.6Q145.7 125.6 144.1 124.2Q142.5 122.9 142.5 120V98.8ZM164.1 126.1Q160.9 126.1 158.5 124.7Q156.2 123.3 154.9 120.8Q153.6 118.3 153.6 115.1Q153.6 111.9 154.9 109.4Q156.2 106.9 158.5 105.5Q160.9 104.1 163.9 104.1Q166.2 104.1 168.1 104.9Q170 105.7 171.4 107.1Q172.7 108.6 173.5 110.6Q174.2 112.6 174.2 115V116.6H155.6V112.8H171.4L168.8 113.7Q168.8 112.1 168.2 111Q167.6 109.8 166.5 109.2Q165.5 108.6 164 108.6Q162.5 108.6 161.5 109.2Q160.4 109.8 159.8 111Q159.3 112.1 159.3 113.7V116.3Q159.3 117.9 159.9 119.1Q160.4 120.3 161.6 121Q162.7 121.7 164.3 121.7Q165.4 121.7 166.3 121.3Q167.2 121 167.8 120.4Q168.4 119.8 168.7 119H174Q173.6 121.1 172.2 122.7Q170.8 124.3 168.7 125.2Q166.6 126.1 164.1 126.1ZM176.6 125.6V104.6H182.2V109.3H181.9Q182.4 107.5 183.4 106.4Q184.4 105.3 185.8 104.7Q187.1 104.1 188.6 104.1Q191 104.1 192.8 105.5Q194.6 106.9 194.9 109.3H194.3Q194.7 107.7 195.7 106.5Q196.7 105.4 198.2 104.7Q199.7 104.1 201.4 104.1Q203.4 104.1 205 105Q206.6 105.9 207.5 107.6Q208.5 109.2 208.5 111.7V125.6H202.6V112.7Q202.6 110.8 201.6 109.9Q200.6 109 199 109Q197.9 109 197.1 109.5Q196.3 110 195.8 110.9Q195.3 111.7 195.3 112.9V125.6H189.7V112.6Q189.7 110.9 188.7 110Q187.7 109 186.2 109Q185.2 109 184.3 109.5Q183.4 109.9 182.9 110.9Q182.4 111.8 182.4 113.2V125.6H176.6ZM220.5 126.1Q217.8 126.1 215.7 125.3Q213.6 124.4 212.3 122.8Q211 121.2 210.8 119H216.6Q216.8 120.4 217.7 121.1Q218.7 121.9 220.4 121.9Q222.1 121.9 223 121.3Q224 120.7 224 119.7Q224 118.9 223.2 118.4Q222.5 117.8 221.2 117.6L217.5 116.9Q214.5 116.3 212.9 114.7Q211.3 113.2 211.3 110.7Q211.3 108.8 212.4 107.3Q213.5 105.8 215.5 104.9Q217.5 104.1 220.2 104.1Q222.9 104.1 225 105Q227 105.9 228.2 107.4Q229.3 109 229.4 111.2H223.9Q223.9 110 222.9 109.1Q221.9 108.3 220.4 108.3Q218.9 108.3 218 108.9Q217.1 109.6 217.1 110.5Q217.1 111.3 217.8 111.9Q218.5 112.4 219.7 112.6L223.7 113.4Q226.9 114 228.4 115.4Q229.9 116.8 229.9 119.2Q229.9 121.3 228.7 122.8Q227.5 124.4 225.4 125.2Q223.3 126.1 220.5 126.1Z"/><g fill="#b6b6c0"><use href="#g14" x="44" y="168.8"/><use href="#g15" x="55.9" y="168.8"/><use href="#g16" x="67.9" y="168.8"/><use href="#g17" x="86.2" y="168.8"/><use href="#g18" x="92.6" y="168.8"/><use href="#g14" x="110.6" y="168.8"/><use href="#g15" x="122.5" y="168.8"/><use href="#g16" x="134.6" y="168.8"/><use href="#g19" x="147.1" y="168.8"/><use href="#g20" x="158.7" y="168.8"/><use href="#g21" x="166.2" y="168.8"/><use href="#g18" x="173.6" y="168.8"/><use href="#g22" x="185.8" y="168.8"/><use href="#g16" x="209.4" y="168.8"/><use href="#g23" x="221.9" y="168.8"/><use href="#g17" x="233.3" y="168.8"/><use href="#g23" x="240.1" y="168.8"/></g><g fill="#b6b6c0"><use href="#g17" x="44" y="197.6"/><use href="#g18" x="50.5" y="197.6"/><use href="#g16" x="68.4" y="197.6"/><use href="#g14" x="80.9" y="197.6"/><use href="#g24" x="92.8" y="197.6"/><use href="#g25" x="105.3" y="197.6"/><use href="#g18" x="110.3" y="197.6"/><use href="#g26" x="122.1" y="197.6"/><use href="#g22" x="133.6" y="197.6"/><use href="#g14" x="151.4" y="197.6"/><use href="#g15" x="163.3" y="197.6"/><use href="#g17" x="175.4" y="197.6"/></g><rect x="327.0" y="20.0" width="293.0" height="211.2" rx="22" fill="url(#lg5)"/><rect x="327.0" y="20.0" width="293.0" height="211.2" rx="22" fill="url(#lg6)"/><path d="M349 20.8H598" stroke="url(#lg27)" stroke-width="1.2" fill="none"/><rect x="327.5" y="20.5" width="292" height="210.2" rx="21.5" fill="none" stroke="#fff" stroke-opacity=".11"/><g fill="#8a8a96"><use href="#g28" x="351" y="65.6"/><use href="#g29" x="362.7" y="65.6"/><use href="#g28" x="374.4" y="65.6"/><use href="#g30" x="386.1" y="65.6"/><use href="#g31" x="397.8" y="65.6"/></g><path fill="url(#lg32)" d="M353.2 125.6V96.3H359.6L369 111.3Q369.4 112 370.1 113.1Q370.7 114.3 371.5 115.6Q372.2 116.9 372.9 118.2L372.2 119.7Q372.1 118.4 372.1 116.6Q372 114.9 372 113.3Q372 111.7 372 110.8V96.3H378V125.6H371.6L363.1 112Q362.6 111.2 361.8 109.8Q361 108.4 360 106.7Q359 104.9 357.9 103L359 102.3Q359.1 104.5 359.2 106.4Q359.2 108.3 359.2 109.7Q359.2 111.2 359.2 112V125.6H353.2ZM392.7 126.1Q388.9 126.1 386.3 124.9Q383.6 123.7 382.2 121.4Q380.8 119.2 380.8 116H386.6Q386.7 117.6 387.4 118.7Q388.2 119.9 389.5 120.5Q390.9 121.1 392.7 121.1Q394.4 121.1 395.7 120.6Q396.9 120.2 397.6 119.3Q398.3 118.5 398.3 117.3Q398.3 116.4 397.8 115.7Q397.3 115 396.1 114.5Q394.9 113.9 393.1 113.5L390 112.9Q385.6 111.9 383.5 109.9Q381.4 107.9 381.4 104.7Q381.4 102 382.8 100Q384.2 98 386.7 96.9Q389.2 95.8 392.5 95.8Q395.9 95.8 398.3 96.9Q400.8 98.1 402.2 100.2Q403.5 102.3 403.6 105.3H397.9Q397.8 103.2 396.3 102Q394.9 100.8 392.5 100.8Q391 100.8 389.9 101.3Q388.7 101.7 388.1 102.5Q387.4 103.4 387.4 104.4Q387.4 105.3 387.9 106Q388.5 106.6 389.6 107.1Q390.7 107.6 392.5 108L395.3 108.6Q397.6 109.1 399.3 109.9Q401.1 110.6 402.2 111.6Q403.3 112.6 403.8 114Q404.3 115.3 404.3 116.9Q404.3 119.8 402.9 121.8Q401.5 123.9 398.9 125Q396.3 126.1 392.7 126.1ZM407.1 125.6V96.3H418.8Q422.1 96.3 424.5 97.5Q426.9 98.6 428.2 100.8Q429.6 102.9 429.6 105.9Q429.6 108.8 428.2 110.9Q426.8 113.1 424.3 114.2Q421.8 115.4 418.5 115.4H410.7V110.5H418.5Q420.1 110.5 421.2 109.9Q422.4 109.4 423 108.3Q423.6 107.3 423.6 105.9Q423.6 104.5 423 103.5Q422.4 102.5 421.2 101.9Q420 101.3 418.4 101.3H413.1V125.6H407.1ZM423.7 125.6 417 112.4H423.4L430.2 125.6H423.7ZM443.6 126.1Q439.8 126.1 437.2 124.9Q434.5 123.7 433.1 121.4Q431.7 119.2 431.7 116H437.5Q437.6 117.6 438.3 118.7Q439 119.9 440.4 120.5Q441.8 121.1 443.6 121.1Q445.3 121.1 446.6 120.6Q447.8 120.2 448.5 119.3Q449.2 118.5 449.2 117.3Q449.2 116.4 448.7 115.7Q448.1 115 447 114.5Q445.8 113.9 444 113.5L440.9 112.9Q436.5 111.9 434.4 109.9Q432.3 107.9 432.3 104.7Q432.3 102 433.7 100Q435 98 437.6 96.9Q440.1 95.8 443.4 95.8Q446.8 95.8 449.2 96.9Q451.7 98.1 453 100.2Q454.4 102.3 454.5 105.3H448.8Q448.7 103.2 447.2 102Q445.8 100.8 443.4 100.8Q441.9 100.8 440.8 101.3Q439.6 101.7 439 102.5Q438.3 103.4 438.3 104.4Q438.3 105.3 438.8 106Q439.3 106.6 440.5 107.1Q441.6 107.6 443.4 108L446.2 108.6Q448.5 109.1 450.2 109.9Q451.9 110.6 453 111.6Q454.1 112.6 454.7 114Q455.2 115.3 455.2 116.9Q455.2 119.8 453.8 121.8Q452.4 123.9 449.8 125Q447.2 126.1 443.6 126.1ZM464 96.3V125.6H458V96.3H464ZM466.3 101.5V96.3H490.1V101.5H481.2V125.6H475.2V101.5H466.3ZM499.6 125.6V121.2L510.4 112Q511.7 110.8 512.7 109.8Q513.7 108.8 514.3 107.7Q514.9 106.6 514.9 105.2Q514.9 103.8 514.3 102.8Q513.7 101.8 512.6 101.2Q511.6 100.7 510.1 100.7Q508.6 100.7 507.4 101.3Q506.3 102 505.7 103.3Q505.1 104.6 505.1 106.4H499.5Q499.5 103.2 500.8 100.8Q502.1 98.4 504.5 97.1Q506.9 95.8 510.1 95.8Q513.2 95.8 515.5 96.9Q517.8 98.1 519.2 100.1Q520.5 102.2 520.5 104.9Q520.5 107 519.7 108.7Q519 110.4 517.5 111.9Q516.1 113.5 514 115.3L507.8 120.7V120.7H520.6V125.6H499.6ZM534.5 126.1Q530.8 126.1 528.1 124.2Q525.5 122.4 524 119Q522.6 115.6 522.6 111Q522.6 106.3 524 102.9Q525.5 99.5 528.1 97.7Q530.8 95.8 534.5 95.8Q538.2 95.8 540.8 97.7Q543.5 99.5 544.9 102.9Q546.3 106.3 546.3 111Q546.3 115.6 544.9 119Q543.5 122.4 540.8 124.2Q538.2 126.1 534.5 126.1ZM534.5 121.2Q536.4 121.2 537.8 120Q539.1 118.7 539.9 116.4Q540.6 114.1 540.6 111Q540.6 107.8 539.9 105.4Q539.1 103.1 537.7 101.9Q536.4 100.7 534.5 100.7Q532.6 100.7 531.2 101.9Q529.8 103.1 529 105.4Q528.3 107.8 528.3 111Q528.3 114.1 529 116.4Q529.8 118.7 531.2 120Q532.6 121.2 534.5 121.2ZM548.3 125.6V121.2L559.1 112Q560.4 110.8 561.4 109.8Q562.4 108.8 563 107.7Q563.6 106.6 563.6 105.2Q563.6 103.8 563 102.8Q562.4 101.8 561.4 101.2Q560.3 100.7 558.9 100.7Q557.3 100.7 556.2 101.3Q555 102 554.4 103.3Q553.8 104.6 553.8 106.4H548.2Q548.2 103.2 549.5 100.8Q550.8 98.4 553.2 97.1Q555.6 95.8 558.9 95.8Q561.9 95.8 564.2 96.9Q566.6 98.1 567.9 100.1Q569.2 102.2 569.2 104.9Q569.2 107 568.5 108.7Q567.7 110.4 566.2 111.9Q564.8 113.5 562.7 115.3L556.5 120.7V120.7H569.3V125.6H548.3ZM582.9 126.1Q580.1 126.1 578 125.1Q575.8 124.1 574.4 122.3Q572.9 120.4 572.1 117.8Q571.3 115.1 571.3 111.7Q571.3 108.1 572.1 105.1Q572.8 102.2 574.3 100.1Q575.8 98 578 96.9Q580.2 95.8 583.1 95.8Q586 95.8 588.3 96.9Q590.5 98 591.8 99.9Q593.1 101.8 593.4 104.3H587.7Q587.4 102.5 586.2 101.5Q585 100.5 583.1 100.5Q581 100.5 579.6 101.6Q578.2 102.8 577.6 104.8Q576.9 106.9 576.9 109.6H576.9Q577.7 108.5 578.7 107.7Q579.8 107 581.1 106.6Q582.4 106.2 583.9 106.2Q586.7 106.2 589 107.5Q591.2 108.7 592.4 111Q593.7 113.2 593.7 116Q593.7 119 592.3 121.3Q590.9 123.5 588.5 124.8Q586.1 126.1 582.9 126.1ZM582.8 121.3Q584.3 121.3 585.5 120.6Q586.6 119.9 587.3 118.7Q588 117.5 588 116Q588 114.5 587.3 113.3Q586.6 112.1 585.5 111.4Q584.3 110.7 582.9 110.7Q581.8 110.7 580.9 111.1Q579.9 111.5 579.2 112.3Q578.5 113 578.1 113.9Q577.7 114.9 577.7 116Q577.7 117.5 578.4 118.7Q579.1 119.9 580.2 120.6Q581.4 121.3 582.8 121.3Z"/><g fill="#b6b6c0"><use href="#g33" x="351" y="168.8"/><use href="#g14" x="364.3" y="168.8"/><use href="#g34" x="376.2" y="168.8"/><use href="#g17" x="387" y="168.8"/><use href="#g35" x="399.4" y="168.8"/><use href="#g36" x="415" y="168.8"/><use href="#g14" x="426.1" y="168.8"/><use href="#g21" x="438" y="168.8"/><use href="#g23" x="445.7" y="168.8"/><use href="#g25" x="457.1" y="168.8"/><use href="#g25" x="462.1" y="168.8"/><use href="#g37" x="472.7" y="168.8"/><use href="#g14" x="485.6" y="168.8"/><use href="#g34" x="497.5" y="168.8"/><use href="#g14" x="508.2" y="168.8"/><use href="#g23" x="520.3" y="168.8"/><use href="#g21" x="531.8" y="168.8"/><use href="#g38" x="539.1" y="168.8"/><use href="#g39" x="550.8" y="168.8"/><use href="#g19" x="562.8" y="168.8"/></g><g fill="#b6b6c0"><use href="#g34" x="351" y="197.6"/><use href="#g14" x="361.8" y="197.6"/><use href="#g34" x="373.7" y="197.6"/><use href="#g34" x="384.4" y="197.6"/><use href="#g40" x="395.2" y="197.6"/><use href="#g18" x="400.1" y="197.6"/><use href="#g15" x="412.4" y="197.6"/><use href="#g23" x="430.2" y="197.6"/><use href="#g41" x="441.6" y="197.6"/><use href="#g23" x="458.3" y="197.6"/><use href="#g21" x="469.8" y="197.6"/><use href="#g16" x="477.1" y="197.6"/></g><rect x="20.0" y="245.2" width="293.0" height="211.2" rx="22" fill="url(#lg5)"/><rect x="20.0" y="245.2" width="293.0" height="211.2" rx="22" fill="url(#lg6)"/><path d="M42 246H291" stroke="url(#lg7)" stroke-width="1.2" fill="none"/><rect x="20.5" y="245.7" width="292" height="210.2" rx="21.5" fill="none" stroke="#fff" stroke-opacity=".11"/><g fill="#8a8a96"><use href="#g12" x="44" y="290.8"/><use href="#g28" x="55.7" y="290.8"/><use href="#g11" x="67.4" y="290.8"/><use href="#g42" x="79.1" y="290.8"/></g><path fill="url(#lg43)" d="M52.3 321.1V350.8H46.2V321.1H52.3ZM69.1 351.3Q65 351.3 61.8 349.4Q58.6 347.6 56.8 344.1Q55 340.7 55 336Q55 331.2 56.8 327.8Q58.6 324.3 61.8 322.5Q65 320.6 69.1 320.6Q71.7 320.6 73.9 321.4Q76.2 322.2 77.9 323.6Q79.6 325.1 80.7 327.1Q81.8 329.1 82.2 331.6H76Q75.7 330.3 75.1 329.2Q74.5 328.2 73.6 327.5Q72.8 326.8 71.6 326.4Q70.5 326.1 69.2 326.1Q66.7 326.1 64.9 327.3Q63.1 328.5 62.1 330.7Q61.2 332.9 61.2 336Q61.2 339 62.1 341.2Q63.1 343.4 64.9 344.6Q66.7 345.9 69.2 345.9Q70.5 345.9 71.6 345.5Q72.7 345.1 73.6 344.4Q74.5 343.7 75.1 342.7Q75.7 341.7 76 340.4H82.2Q81.8 342.9 80.7 344.9Q79.6 346.9 77.9 348.3Q76.2 349.7 73.9 350.5Q71.7 351.3 69.1 351.3ZM97.9 351.3Q93.8 351.3 90.6 349.4Q87.5 347.6 85.6 344.1Q83.8 340.7 83.8 336Q83.8 331.2 85.6 327.8Q87.4 324.3 90.6 322.5Q93.8 320.6 97.9 320.6Q100.5 320.6 102.7 321.4Q105 322.2 106.7 323.6Q108.4 325.1 109.5 327.1Q110.6 329.1 111 331.6H104.8Q104.5 330.3 103.9 329.2Q103.3 328.2 102.4 327.5Q101.6 326.8 100.4 326.4Q99.3 326.1 98 326.1Q95.5 326.1 93.7 327.3Q91.9 328.5 90.9 330.7Q90 332.9 90 336Q90 339 90.9 341.2Q91.9 343.4 93.7 344.6Q95.5 345.9 98 345.9Q99.3 345.9 100.4 345.5Q101.5 345.1 102.4 344.4Q103.3 343.7 103.9 342.7Q104.5 341.7 104.8 340.4H111Q110.6 342.9 109.5 344.9Q108.4 346.9 106.7 348.3Q105 349.7 102.7 350.5Q100.5 351.3 97.9 351.3ZM113.6 350.8V321.1H122.5L127.4 334.9Q127.7 335.9 128.1 337.2Q128.5 338.6 129 340.1Q129.4 341.6 129.8 342.9Q130.2 344.3 130.4 345.2H128.9Q129.1 344.3 129.5 342.9Q129.9 341.6 130.3 340.1Q130.7 338.6 131.1 337.2Q131.5 335.9 131.8 334.9L136.7 321.1H145.6V350.8H139.6V336.7Q139.6 335.7 139.6 334.3Q139.7 332.9 139.7 331.4Q139.8 329.8 139.8 328.2Q139.8 326.6 139.8 325.2H140.6Q140.1 326.7 139.6 328.4Q139.1 330.1 138.7 331.6Q138.2 333.2 137.8 334.5Q137.4 335.8 137.1 336.7L132.1 350.8H127.1L122 336.7Q121.7 335.8 121.3 334.5Q120.9 333.2 120.4 331.6Q120 330.1 119.5 328.4Q119 326.7 118.5 325.2H119.4Q119.4 326.6 119.4 328.2Q119.4 329.8 119.5 331.4Q119.5 332.9 119.6 334.3Q119.6 335.7 119.6 336.7V350.8H113.6ZM149.2 350.8V321.1H158.2L163.1 334.9Q163.4 335.9 163.8 337.2Q164.2 338.6 164.6 340.1Q165.1 341.6 165.5 342.9Q165.8 344.3 166.1 345.2H164.5Q164.8 344.3 165.1 342.9Q165.5 341.6 165.9 340.1Q166.4 338.6 166.8 337.2Q167.2 335.9 167.5 334.9L172.3 321.1H181.3V350.8H175.3V336.7Q175.3 335.7 175.3 334.3Q175.3 332.9 175.4 331.4Q175.4 329.8 175.5 328.2Q175.5 326.6 175.5 325.2H176.2Q175.8 326.7 175.3 328.4Q174.8 330.1 174.3 331.6Q173.9 333.2 173.5 334.5Q173.1 335.8 172.8 336.7L167.7 350.8H162.8L157.7 336.7Q157.4 335.8 157 334.5Q156.6 333.2 156.1 331.6Q155.6 330.1 155.1 328.4Q154.6 326.7 154.1 325.2H155Q155 326.6 155.1 328.2Q155.1 329.8 155.1 331.4Q155.2 332.9 155.2 334.3Q155.3 335.7 155.3 336.7V350.8H149.2ZM192.2 350.8V346.3L203.1 337Q204.4 335.8 205.4 334.8Q206.5 333.8 207 332.7Q207.6 331.6 207.6 330.2Q207.6 328.8 207.1 327.7Q206.5 326.7 205.4 326.1Q204.3 325.5 202.9 325.5Q201.3 325.5 200.1 326.2Q199 326.9 198.4 328.2Q197.7 329.5 197.7 331.3H192.1Q192.1 328.1 193.4 325.7Q194.7 323.3 197.1 322Q199.6 320.6 202.9 320.6Q205.9 320.6 208.3 321.8Q210.6 322.9 212 325Q213.3 327.1 213.3 329.9Q213.3 332 212.6 333.7Q211.8 335.4 210.3 337Q208.9 338.6 206.8 340.4L200.5 345.8V345.9H213.5V350.8H192.2ZM227.5 351.3Q223.8 351.3 221.1 349.4Q218.4 347.5 216.9 344.1Q215.5 340.7 215.5 336Q215.5 331.2 216.9 327.8Q218.4 324.4 221.1 322.5Q223.8 320.6 227.5 320.6Q231.2 320.6 233.9 322.5Q236.6 324.4 238 327.8Q239.5 331.2 239.5 336Q239.5 340.7 238 344.1Q236.6 347.6 233.9 349.4Q231.2 351.3 227.5 351.3ZM227.5 346.4Q229.4 346.4 230.8 345.1Q232.2 343.9 233 341.5Q233.7 339.2 233.7 336Q233.7 332.7 233 330.4Q232.2 328.1 230.8 326.8Q229.4 325.5 227.5 325.5Q225.6 325.5 224.2 326.8Q222.8 328.1 222 330.4Q221.2 332.7 221.2 336Q221.2 339.2 222 341.5Q222.8 343.9 224.2 345.1Q225.6 346.4 227.5 346.4ZM241.5 350.8V346.3L252.4 337Q253.7 335.8 254.8 334.8Q255.8 333.8 256.4 332.7Q257 331.6 257 330.2Q257 328.8 256.4 327.7Q255.8 326.7 254.7 326.1Q253.7 325.5 252.2 325.5Q250.6 325.5 249.5 326.2Q248.3 326.9 247.7 328.2Q247.1 329.5 247.1 331.3H241.4Q241.4 328.1 242.7 325.7Q244.1 323.3 246.5 322Q248.9 320.6 252.2 320.6Q255.2 320.6 257.6 321.8Q260 322.9 261.3 325Q262.7 327.1 262.7 329.9Q262.7 332 261.9 333.7Q261.1 335.4 259.7 337Q258.2 338.6 256.1 340.4L249.8 345.8V345.9H262.8V350.8H241.5ZM276.5 351.3Q273.7 351.3 271.6 350.3Q269.4 349.3 267.9 347.5Q266.4 345.6 265.6 342.9Q264.8 340.2 264.8 336.7Q264.8 333 265.6 330.1Q266.3 327.1 267.8 325Q269.4 322.9 271.6 321.8Q273.8 320.6 276.7 320.6Q279.7 320.6 281.9 321.8Q284.2 322.9 285.5 324.8Q286.9 326.7 287.1 329.2H281.4Q281.1 327.4 279.9 326.4Q278.6 325.4 276.7 325.4Q274.6 325.4 273.2 326.5Q271.8 327.7 271.1 329.8Q270.4 331.9 270.4 334.6H270.5Q271.2 333.5 272.3 332.7Q273.3 331.9 274.7 331.6Q276 331.2 277.5 331.2Q280.4 331.2 282.7 332.4Q284.9 333.7 286.2 336Q287.5 338.2 287.5 341.1Q287.5 344.1 286.1 346.4Q284.7 348.7 282.2 350Q279.7 351.3 276.5 351.3ZM276.5 346.5Q277.9 346.5 279.1 345.7Q280.3 345 281 343.8Q281.7 342.6 281.7 341.1Q281.7 339.6 281 338.4Q280.3 337.2 279.2 336.5Q278 335.8 276.5 335.8Q275.4 335.8 274.5 336.2Q273.5 336.6 272.8 337.3Q272.1 338 271.7 339Q271.3 340 271.3 341.1Q271.3 342.6 272 343.8Q272.7 345 273.8 345.7Q275 346.5 276.5 346.5Z"/><g fill="#b6b6c0"><use href="#g23" x="44" y="394"/><use href="#g38" x="55.5" y="394"/><use href="#g38" x="67.1" y="394"/><use href="#g14" x="78.8" y="394"/><use href="#g24" x="90.7" y="394"/><use href="#g17" x="103.1" y="394"/><use href="#g14" x="109.6" y="394"/><use href="#g16" x="121.5" y="394"/><use href="#g20" x="139.7" y="394"/><use href="#g18" x="146.7" y="394"/><use href="#g21" x="158.9" y="394"/><use href="#g23" x="172.3" y="394"/><use href="#g15" x="183.8" y="394"/><use href="#g18" x="201.6" y="394"/><use href="#g21" x="213.8" y="394"/><use href="#g23" x="221.5" y="394"/><use href="#g25" x="233" y="394"/></g><g fill="#b6b6c0"><use href="#g24" x="44" y="422.8"/><use href="#g21" x="56.5" y="422.8"/><use href="#g14" x="63.8" y="422.8"/><use href="#g34" x="75.7" y="422.8"/><use href="#g14" x="86.5" y="422.8"/><use href="#g15" x="98.4" y="422.8"/><use href="#g17" x="110.4" y="422.8"/><use href="#g23" x="117.2" y="422.8"/><use href="#g17" x="128.7" y="422.8"/><use href="#g40" x="135.3" y="422.8"/><use href="#g18" x="140.3" y="422.8"/><use href="#g15" x="152.5" y="422.8"/></g><rect x="327.0" y="245.2" width="293.0" height="211.2" rx="22" fill="url(#lg5)"/><rect x="327.0" y="245.2" width="293.0" height="211.2" rx="22" fill="url(#lg6)"/><path d="M349 246H598" stroke="url(#lg27)" stroke-width="1.2" fill="none"/><rect x="327.5" y="245.7" width="292" height="210.2" rx="21.5" fill="none" stroke="#fff" stroke-opacity=".11"/><g fill="#8a8a96"><use href="#g44" x="351" y="290.8"/><use href="#g28" x="362.7" y="290.8"/><use href="#g44" x="374.4" y="290.8"/><use href="#g45" x="386.1" y="290.8"/><use href="#g30" x="397.8" y="290.8"/></g><path fill="url(#lg46)" d="M359.3 321.1V350.8H353.2V321.1H359.3ZM376.1 351.3Q372 351.3 368.8 349.4Q365.6 347.6 363.8 344.1Q362 340.7 362 336Q362 331.2 363.8 327.8Q365.6 324.3 368.8 322.5Q372 320.6 376.1 320.6Q378.7 320.6 380.9 321.4Q383.2 322.2 384.9 323.6Q386.6 325.1 387.7 327.1Q388.8 329.1 389.2 331.6H383Q382.7 330.3 382.1 329.2Q381.5 328.2 380.6 327.5Q379.8 326.8 378.6 326.4Q377.5 326.1 376.2 326.1Q373.7 326.1 371.9 327.3Q370.1 328.5 369.1 330.7Q368.2 332.9 368.2 336Q368.2 339 369.1 341.2Q370.1 343.4 371.9 344.6Q373.7 345.9 376.2 345.9Q377.5 345.9 378.6 345.5Q379.7 345.1 380.6 344.4Q381.5 343.7 382.1 342.7Q382.7 341.7 383 340.4H389.2Q388.8 342.9 387.7 344.9Q386.6 346.9 384.9 348.3Q383.2 349.7 380.9 350.5Q378.7 351.3 376.1 351.3ZM388.7 350.8 399.1 321.1H407L417.4 350.8H410.6L406 336.4Q405.1 333.5 404.2 330.5Q403.3 327.5 402.2 323.6H403.9Q402.8 327.5 401.9 330.5Q401 333.5 400.1 336.4L395.3 350.8H388.7ZM395.3 344.3V339.4H410.8V344.3H395.3ZM430.5 351.3Q426.5 351.3 423.3 349.4Q420.1 347.6 418.3 344.1Q416.4 340.7 416.4 336Q416.4 331.2 418.2 327.8Q420.1 324.3 423.3 322.5Q426.5 320.6 430.5 320.6Q433.1 320.6 435.4 321.4Q437.6 322.2 439.3 323.6Q441 325.1 442.1 327.1Q443.2 329.1 443.6 331.6H437.4Q437.1 330.3 436.5 329.2Q435.9 328.2 435.1 327.5Q434.2 326.8 433.1 326.4Q431.9 326.1 430.6 326.1Q428.1 326.1 426.3 327.3Q424.5 328.5 423.5 330.7Q422.6 332.9 422.6 336Q422.6 339 423.5 341.2Q424.5 343.4 426.3 344.6Q428.1 345.9 430.6 345.9Q431.9 345.9 433.1 345.5Q434.2 345.1 435 344.4Q435.9 343.7 436.5 342.7Q437.1 341.7 437.4 340.4H443.6Q443.2 342.9 442.1 344.9Q441 346.9 439.3 348.3Q437.6 349.7 435.4 350.5Q433.1 351.3 430.5 351.3ZM444.9 326.4V321.1H469V326.4H460V350.8H453.9V326.4H444.9ZM478.6 350.8V346.3L489.5 337Q490.8 335.8 491.8 334.8Q492.9 333.8 493.4 332.7Q494 331.6 494 330.2Q494 328.8 493.5 327.7Q492.9 326.7 491.8 326.1Q490.7 325.5 489.3 325.5Q487.7 325.5 486.5 326.2Q485.4 326.9 484.8 328.2Q484.1 329.5 484.1 331.3H478.5Q478.5 328.1 479.8 325.7Q481.1 323.3 483.5 322Q486 320.6 489.3 320.6Q492.3 320.6 494.7 321.8Q497.1 322.9 498.4 325Q499.7 327.1 499.7 329.9Q499.7 332 499 333.7Q498.2 335.4 496.7 337Q495.3 338.6 493.2 340.4L486.9 345.8V345.9H499.9V350.8H478.6ZM513.9 351.3Q510.2 351.3 507.5 349.4Q504.8 347.5 503.3 344.1Q501.9 340.7 501.9 336Q501.9 331.2 503.3 327.8Q504.8 324.4 507.5 322.5Q510.2 320.6 513.9 320.6Q517.6 320.6 520.3 322.5Q523 324.4 524.4 327.8Q525.9 331.2 525.9 336Q525.9 340.7 524.4 344.1Q523 347.6 520.3 349.4Q517.6 351.3 513.9 351.3ZM513.9 346.4Q515.8 346.4 517.2 345.1Q518.6 343.9 519.4 341.5Q520.1 339.2 520.1 336Q520.1 332.7 519.4 330.4Q518.6 328.1 517.2 326.8Q515.8 325.5 513.9 325.5Q512 325.5 510.6 326.8Q509.2 328.1 508.4 330.4Q507.6 332.7 507.6 336Q507.6 339.2 508.4 341.5Q509.2 343.9 510.6 345.1Q512 346.4 513.9 346.4ZM527.9 350.8V346.3L538.8 337Q540.1 335.8 541.2 334.8Q542.2 333.8 542.8 332.7Q543.4 331.6 543.4 330.2Q543.4 328.8 542.8 327.7Q542.2 326.7 541.1 326.1Q540.1 325.5 538.6 325.5Q537 325.5 535.9 326.2Q534.7 326.9 534.1 328.2Q533.5 329.5 533.5 331.3H527.8Q527.8 328.1 529.1 325.7Q530.5 323.3 532.9 322Q535.3 320.6 538.6 320.6Q541.6 320.6 544 321.8Q546.4 322.9 547.7 325Q549.1 327.1 549.1 329.9Q549.1 332 548.3 333.7Q547.5 335.4 546.1 337Q544.6 338.6 542.5 340.4L536.2 345.8V345.9H549.2V350.8H527.9ZM562.9 351.3Q560.1 351.3 558 350.3Q555.8 349.3 554.3 347.5Q552.8 345.6 552 342.9Q551.2 340.2 551.2 336.7Q551.2 333 552 330.1Q552.7 327.1 554.2 325Q555.8 322.9 558 321.8Q560.2 320.6 563.1 320.6Q566.1 320.6 568.3 321.8Q570.6 322.9 571.9 324.8Q573.3 326.7 573.5 329.2H567.8Q567.5 327.4 566.3 326.4Q565 325.4 563.1 325.4Q561 325.4 559.6 326.5Q558.2 327.7 557.5 329.8Q556.8 331.9 556.8 334.6H556.9Q557.6 333.5 558.7 332.7Q559.7 331.9 561.1 331.6Q562.4 331.2 563.9 331.2Q566.8 331.2 569.1 332.4Q571.3 333.7 572.6 336Q573.9 338.2 573.9 341.1Q573.9 344.1 572.5 346.4Q571.1 348.7 568.6 350Q566.1 351.3 562.9 351.3ZM562.9 346.5Q564.3 346.5 565.5 345.7Q566.7 345 567.4 343.8Q568.1 342.6 568.1 341.1Q568.1 339.6 567.4 338.4Q566.7 337.2 565.6 336.5Q564.4 335.8 562.9 335.8Q561.8 335.8 560.9 336.2Q559.9 336.6 559.2 337.3Q558.5 338 558.1 339Q557.7 340 557.7 341.1Q557.7 342.6 558.4 343.8Q559.1 345 560.2 345.7Q561.4 346.5 562.9 346.5Z"/><g fill="#b6b6c0"><use href="#g34" x="351" y="394"/><use href="#g47" x="361.8" y="394"/><use href="#g48" x="373.8" y="394"/><use href="#g22" x="386.3" y="394"/><use href="#g40" x="404.2" y="394"/><use href="#g17" x="409.1" y="394"/><use href="#g17" x="415.8" y="394"/><use href="#g14" x="422.3" y="394"/><use href="#g16" x="434.2" y="394"/><use href="#g17" x="452.4" y="394"/><use href="#g18" x="458.9" y="394"/><use href="#g49" x="476.8" y="394"/><use href="#g21" x="488.9" y="394"/><use href="#g23" x="496.5" y="394"/><use href="#g38" x="508" y="394"/><use href="#g50" x="519.6" y="394"/><use href="#g51" x="536.6" y="394"/><use href="#g19" x="548.7" y="394"/></g><g fill="#b6b6c0"><use href="#g52" x="351" y="422.8"/><use href="#g40" x="365.7" y="422.8"/><use href="#g53" x="370.7" y="422.8"/><use href="#g40" x="383.2" y="422.8"/><use href="#g17" x="388.1" y="422.8"/><use href="#g23" x="394.9" y="422.8"/><use href="#g25" x="406.3" y="422.8"/><use href="#g54" x="417" y="422.8"/><use href="#g14" x="432.2" y="422.8"/><use href="#g23" x="444.3" y="422.8"/><use href="#g25" x="455.7" y="422.8"/><use href="#g17" x="461" y="422.8"/><use href="#g39" x="467.6" y="422.8"/></g></svg>
